<svg width="109" height="141" viewBox="0 0 109 141" fill="none" xmlns="http://www.w3.org/2000/svg">
    <g clip-path="url(#clip0)">
        <path d="M14.8034 57.8393L65.1842 49.0579C73.6856 48.5928 79.4909 55.1748 79.6509 64.4147L80.4075 108.124C80.5675 117.363 74.8136 124.696 67.5555 124.502L17.1084 123.153C9.85029 122.96 3.84882 115.991 3.70338 107.59L3.11471 73.5841C2.96927 65.1826 6.92109 59.5338 14.8034 57.8393Z" fill="url(#paint0_linear)"/>
        <path d="M14.2364 57.7695L65.0593 48.9709C73.6352 48.5041 79.4905 55.0931 79.6506 64.344L80.4082 108.105C80.5683 117.355 74.7631 124.697 67.4415 124.504L16.553 123.16C9.23139 122.968 3.1783 115.992 3.03269 107.581L2.44332 73.5345C2.2977 65.123 6.28486 59.467 14.2364 57.7695Z" fill="url(#paint1_radial)"/>
        <path d="M48.4209 19.2719C45.802 22.157 44.0468 25.4549 43.0798 29.3625C41.7159 34.8744 42.1294 40.7976 42.5237 46.544C42.9122 52.0483 43.3138 57.7612 42.0598 62.8289C41.2106 66.2607 39.6838 69.1556 37.3868 71.6725C36.5667 72.5937 37.1398 73.8648 38.3823 74.2572L65.9622 81.1857C66.6165 81.35 67.3054 81.1668 67.7159 80.7063C70.3474 77.8244 72.0907 74.5245 73.0578 70.616C74.4218 65.1041 74.0074 59.1807 73.6113 53.4453C73.2127 47.928 72.8239 42.2173 74.0779 37.1496C74.9271 33.7178 76.4539 30.8229 78.7509 28.306C79.6435 27.2999 78.8945 26.0075 77.7554 25.7213L50.1746 18.7926C49.5203 18.6282 48.8439 18.8146 48.4209 19.2719Z" fill="#5ED43E"/>
        <path d="M48.4209 19.2719C45.802 22.157 44.0468 25.4549 43.0798 29.3625C41.7159 34.8744 42.1294 40.7976 42.5237 46.544C42.9122 52.0483 43.3138 57.7612 42.0598 62.8289C41.2106 66.2607 39.6838 69.1556 37.3868 71.6725C36.5667 72.5937 37.1398 73.8648 38.3823 74.2572L65.9622 81.1857C66.6165 81.35 67.3054 81.1668 67.7159 80.7063C70.3474 77.8244 72.0907 74.5245 73.0578 70.616C74.4218 65.1041 74.0074 59.1807 73.6113 53.4453C73.2127 47.928 72.8239 42.2173 74.0779 37.1496C74.9271 33.7178 76.4539 30.8229 78.7509 28.306C79.6435 27.2999 78.8945 26.0075 77.7554 25.7213L50.1746 18.7926C49.5203 18.6282 48.8439 18.8146 48.4209 19.2719Z" fill="url(#paint2_linear)"/>
        <path d="M65.9318 52.8463C66.9175 48.8675 64.5063 44.8364 60.5462 43.8427C56.5862 42.849 52.577 45.2688 51.5913 49.2476C50.6057 53.2264 53.0169 57.2575 56.9769 58.2512C60.9369 59.245 64.9462 56.8251 65.9318 52.8463Z" fill="#54AA80"/>
        <path fill-rule="evenodd" clip-rule="evenodd" d="M46.4996 70.7932L47.4633 68.2687L48.4279 65.7445C48.5225 65.4967 48.6649 65.2701 48.8469 65.0777C49.029 64.8852 49.247 64.7307 49.4887 64.6229C49.7304 64.5151 49.991 64.4561 50.2556 64.4494C50.5202 64.4427 50.7836 64.4883 51.0308 64.5836C51.278 64.6789 51.5041 64.8222 51.6963 65.0051C51.8885 65.188 52.0429 65.407 52.1508 65.6497C52.2587 65.8923 52.3179 66.1538 52.3251 66.4192C52.3323 66.6846 52.2873 66.9488 52.1927 67.1966C51.87 68.0377 51.549 68.8792 51.2281 69.7208L50.2633 72.2459C50.1686 72.4937 50.0263 72.7203 49.8443 72.9127C49.6622 73.1052 49.4442 73.2597 49.2025 73.3675C48.9608 73.4753 48.7002 73.5343 48.4356 73.541C48.171 73.5478 47.9076 73.5022 47.6604 73.4068C47.4132 73.3115 47.1871 73.1683 46.9949 72.9854C46.8027 72.8024 46.6483 72.5834 46.5404 72.3408C46.4325 72.0981 46.3733 71.8366 46.3661 71.5712C46.3589 71.3058 46.4039 71.0416 46.4985 70.7938L46.4996 70.7932ZM47.827 30.2842L48.7909 27.7589L49.7555 25.2347C49.8501 24.9869 49.9925 24.7603 50.1745 24.5679C50.3565 24.3754 50.5746 24.2209 50.8163 24.1131C51.058 24.0053 51.3186 23.9463 51.5832 23.9396C51.8477 23.9328 52.1112 23.9784 52.3584 24.0738C52.6056 24.1691 52.8317 24.3123 53.0239 24.4952C53.216 24.6782 53.3705 24.8972 53.4784 25.1398C53.5863 25.3825 53.6455 25.644 53.6527 25.9094C53.6599 26.1748 53.6149 26.439 53.5202 26.6868C53.1975 27.5279 52.8766 28.3694 52.5554 29.2119L51.5908 31.7361C51.3997 32.2365 51.0181 32.64 50.53 32.8577C50.0419 33.0754 49.4872 33.0895 48.9879 32.897C48.4887 32.7044 48.0858 32.321 47.8679 31.8309C47.65 31.3409 47.635 30.7845 47.8261 30.284L47.827 30.2842ZM65.3141 74.852L67.2424 69.8034C67.4335 69.303 67.8151 68.8995 68.3032 68.6818C68.7913 68.4641 69.346 68.4499 69.8453 68.6425C70.3445 68.835 70.7474 69.2185 70.9653 69.7085C71.1832 70.1986 71.1982 70.755 71.0071 71.2555L69.0788 76.3041C68.8878 76.8045 68.5062 77.208 68.018 77.4257C67.5299 77.6434 66.9752 77.6576 66.476 77.465C65.9767 77.2725 65.5739 76.889 65.356 76.399C65.1381 75.9089 65.123 75.3525 65.3141 74.852ZM69.3296 35.6941L71.257 30.6453C71.4481 30.1448 71.8296 29.7414 72.3178 29.5236C72.8059 29.3059 73.3606 29.2918 73.8598 29.4843C74.3591 29.6769 74.762 30.0604 74.9799 30.5504C75.1977 31.0404 75.2128 31.5969 75.0217 32.0973L73.0943 37.1462C72.9997 37.394 72.8573 37.6206 72.6753 37.813C72.4933 38.0055 72.2752 38.16 72.0335 38.2678C71.7918 38.3756 71.5312 38.4346 71.2666 38.4413C71.0021 38.4481 70.7386 38.4025 70.4914 38.3071C70.2443 38.2118 70.0181 38.0686 69.8259 37.8857C69.6338 37.7027 69.4793 37.4837 69.3714 37.2411C69.2635 36.9984 69.2043 36.7369 69.1971 36.4715C69.1899 36.2061 69.2349 35.9419 69.3296 35.6941Z" fill="#54AA80"/>
        <path d="M17.5686 66.3685L63.8918 58.4493C71.4978 58.0318 75.4088 62.0689 75.5529 70.3879L76.2365 109.743C76.3815 118.061 71.2354 124.661 64.7416 124.485L19.6406 125.176C13.1467 124.999 7.77618 118.725 7.64501 111.161L7.11294 80.5436C6.98085 72.9806 10.5169 67.8935 17.5686 66.3694V66.3685Z" fill="#D44A08"/>
        <path d="M12.253 60.3776C11.1355 64.015 10.941 67.6603 11.685 71.5202C12.7342 76.9633 15.5063 82.0366 18.1873 86.9596C20.7663 91.6713 23.442 96.5624 24.4068 101.568C25.0603 104.958 24.9015 108.153 23.917 111.332C23.5742 112.487 24.5935 113.375 25.8392 113.208L52.7757 107.928C53.4159 107.802 53.9439 107.354 54.1145 106.778C55.2439 103.138 55.4265 99.495 54.6822 95.6334C53.633 90.1903 50.8609 85.117 48.1818 80.2039C45.5891 75.4845 42.925 70.5902 41.9604 65.5857C41.3069 62.1954 41.4657 59.0008 42.4502 55.822C42.8218 54.5622 41.6413 53.7275 40.528 53.9457L13.5906 59.2259C12.9504 59.3513 12.4351 59.797 12.2518 60.3759L12.253 60.3776Z" fill="#5ED43E"/>
        <path d="M12.253 60.3776C11.1355 64.015 10.941 67.6603 11.685 71.5202C12.7342 76.9633 15.5063 82.0366 18.1873 86.9596C20.7663 91.6713 23.442 96.5624 24.4068 101.568C25.0603 104.958 24.9015 108.153 23.917 111.332C23.5742 112.487 24.5935 113.375 25.8392 113.208L52.7757 107.928C53.4159 107.802 53.9439 107.354 54.1145 106.778C55.2439 103.138 55.4265 99.495 54.6822 95.6334C53.633 90.1903 50.8609 85.117 48.1818 80.2039C45.5891 75.4845 42.925 70.5902 41.9604 65.5857C41.3069 62.1954 41.4657 59.0008 42.4502 55.822C42.8218 54.5622 41.6413 53.7275 40.528 53.9457L13.5906 59.2259C12.9504 59.3513 12.4351 59.797 12.2518 60.3759L12.253 60.3776Z" fill="url(#paint3_linear)"/>
        <path d="M41.5016 80.3404C40.7244 76.3147 36.847 73.6868 32.8412 74.4708C28.8353 75.2548 26.218 79.1539 26.9952 83.1796C27.7723 87.2053 31.6497 89.8332 35.6556 89.0492C39.6614 88.2652 42.2788 84.3661 41.5016 80.3404Z" fill="#35B213"/>
        <path fill-rule="evenodd" clip-rule="evenodd" d="M30.0788 104.446L29.893 101.747L29.7065 99.0486C29.6695 98.5137 29.846 97.9857 30.1969 97.5807C30.5478 97.1757 31.0446 96.9269 31.5779 96.8891C32.1111 96.8512 32.6372 97.0274 33.0404 97.3789C33.4436 97.7303 33.6909 98.2283 33.7278 98.7632L33.9135 101.461L34.1002 104.16C34.1371 104.695 33.9607 105.223 33.6098 105.628C33.2588 106.033 32.7621 106.282 32.2288 106.32C31.6956 106.358 31.1695 106.182 30.7663 105.83C30.3631 105.479 30.1158 104.981 30.0788 104.446ZM16.6543 67.9888C16.5934 67.0883 16.5311 66.1899 16.4685 65.2897L16.2828 62.5914C16.2645 62.3266 16.2984 62.0606 16.3826 61.8088C16.4667 61.5569 16.5995 61.324 16.7732 61.1235C16.947 60.923 17.1584 60.7587 17.3954 60.64C17.6323 60.5214 17.8902 60.4506 18.1542 60.4319C18.4182 60.4132 18.6833 60.4468 18.9343 60.5308C19.1852 60.6148 19.4171 60.7477 19.6168 60.9217C19.8164 61.0957 19.9799 61.3075 20.0978 61.5451C20.2158 61.7826 20.2859 62.0412 20.3042 62.306C20.3649 63.2057 20.4273 64.105 20.49 65.0052L20.6756 67.7034C20.6939 67.9683 20.66 68.2342 20.5759 68.4861C20.4917 68.738 20.359 68.9708 20.1852 69.1713C20.0115 69.3719 19.8001 69.5362 19.5631 69.6548C19.3262 69.7735 19.0683 69.8442 18.8043 69.863C18.5402 69.8817 18.2752 69.8481 18.0242 69.764C17.7733 69.68 17.5413 69.5472 17.3417 69.3731C17.1421 69.1991 16.9786 68.9873 16.8606 68.7498C16.7427 68.5123 16.6726 68.2537 16.6543 67.9888ZM50.2348 101.737L49.8626 96.3404C49.8257 95.8056 50.0021 95.2775 50.353 94.8725C50.704 94.4676 51.2007 94.2188 51.734 94.1809C52.2672 94.1431 52.7933 94.3193 53.1965 94.6707C53.5997 95.0222 53.847 95.5201 53.884 96.055L54.2561 101.451C54.2931 101.986 54.1167 102.514 53.7657 102.919C53.4148 103.324 52.918 103.573 52.3848 103.611C51.8515 103.649 51.3254 103.473 50.9222 103.121C50.519 102.77 50.2717 102.272 50.2348 101.737ZM35.4683 63.93L35.0953 58.5338C35.0583 57.9989 35.2347 57.4709 35.5857 57.0659C35.9366 56.6609 36.4334 56.4122 36.9666 56.3743C37.4999 56.3365 38.026 56.5127 38.4292 56.8641C38.8324 57.2156 39.0797 57.7135 39.1166 58.2484L39.4897 63.6446C39.5266 64.1795 39.3502 64.7075 38.9993 65.1125C38.6483 65.5175 38.1516 65.7663 37.6183 65.8041C37.0851 65.842 36.559 65.6658 36.1558 65.3143C35.7526 64.9628 35.5053 64.4649 35.4683 63.93Z" fill="#54AA80"/>
        <path d="M77.4642 36.606C73.6676 37.4641 70.3418 39.1561 67.3106 41.8023C63.0376 45.5326 59.9842 50.6212 57.0152 55.5526C54.1814 60.2837 51.2376 65.1919 47.3083 68.6221C44.6467 70.9457 41.7393 72.4394 38.417 73.1821C37.2186 73.4665 36.9598 74.8364 37.7517 75.8702L56.3649 97.3735C56.8071 97.8844 57.4761 98.1297 58.0753 97.9875C61.8798 97.1384 65.1985 95.4368 68.2289 92.7912C72.5027 89.0603 75.556 83.9717 78.5159 79.0482C81.3503 74.3007 84.302 69.4016 88.2313 65.9713C90.8929 63.6478 93.8009 62.1535 97.1219 61.4106C98.4303 61.0991 98.5573 59.6108 97.7879 58.722L79.1754 37.2194C78.7331 36.7085 78.0719 36.4736 77.4642 36.606Z" fill="#7AECB5"/>
        <path d="M73.1447 74.2923C76.2296 71.5992 76.5621 66.911 73.8874 63.821C71.2127 60.731 66.5436 60.4092 63.4587 63.1023C60.3738 65.7953 60.0413 70.4835 62.7161 73.5735C65.3908 76.6636 70.0598 76.9854 73.1447 74.2923Z" fill="url(#paint4_linear)"/>
        <path fill-rule="evenodd" clip-rule="evenodd" d="M46.0892 77.378L48.3229 75.8642L50.5579 74.3504C51.0008 74.0503 51.5441 73.9391 52.0684 74.0413C52.5926 74.1434 53.0549 74.4505 53.3535 74.895C53.6521 75.3396 53.7625 75.8851 53.6605 76.4116C53.5585 76.9382 53.2524 77.4026 52.8095 77.7026C52.0632 78.2067 51.3189 78.7115 50.5745 79.2164L48.3402 80.7295C48.1209 80.8781 47.8746 80.9819 47.6155 81.0349C47.3563 81.088 47.0893 81.0893 46.8297 81.0387C46.5701 80.9881 46.323 80.8867 46.1025 80.7402C45.882 80.5937 45.6924 80.405 45.5446 80.1849C45.3967 79.9648 45.2935 79.7176 45.2409 79.4574C45.1882 79.1971 45.1871 78.929 45.2376 78.6683C45.2881 78.4076 45.3893 78.1594 45.5353 77.9379C45.6813 77.7164 45.8693 77.5259 46.0886 77.3773L46.0892 77.378ZM71.6668 44.9624L73.9005 43.4486L76.1348 41.9355C76.3541 41.7869 76.6003 41.6831 76.8595 41.6301C77.1187 41.577 77.3857 41.5757 77.6453 41.6263C77.9049 41.6769 78.152 41.7783 78.3725 41.9248C78.593 42.0713 78.7826 42.26 78.9304 42.4801C79.0782 42.7002 79.1815 42.9474 79.2341 43.2076C79.2868 43.4679 79.2879 43.736 79.2374 43.9967C79.1869 44.2574 79.0857 44.5056 78.9397 44.7271C78.7937 44.9486 78.6057 45.1391 78.3864 45.2877C77.6408 45.7911 76.8965 46.296 76.1521 46.8008L73.9171 48.3146C73.6978 48.4632 73.4515 48.5669 73.1924 48.62C72.9332 48.673 72.6662 48.6743 72.4066 48.6237C72.147 48.5732 71.8999 48.4717 71.6794 48.3252C71.4589 48.1787 71.2693 47.9901 71.1215 47.7699C70.9736 47.5498 70.8704 47.3026 70.8178 47.0424C70.7651 46.7822 70.764 46.5141 70.8145 46.2534C70.865 45.9926 70.9661 45.7445 71.1122 45.5229C71.2582 45.3014 71.4462 45.1109 71.6655 44.9624L71.6668 44.9624ZM59.5103 92.2028L63.9777 89.1751C64.197 89.0266 64.4433 88.9228 64.7024 88.8697C64.9616 88.8167 65.2286 88.8154 65.4882 88.866C65.7478 88.9166 65.9949 89.018 66.2154 89.1645C66.4359 89.311 66.6255 89.4997 66.7733 89.7198C66.9212 89.9399 67.0244 90.1871 67.0771 90.4473C67.1297 90.7075 67.1308 90.9756 67.0803 91.2364C67.0298 91.4971 66.9287 91.7453 66.7827 91.9668C66.6366 92.1883 66.4486 92.3788 66.2294 92.5274L61.7619 95.555C61.3191 95.8551 60.7757 95.9663 60.2515 95.8642C59.7272 95.7621 59.2649 95.4549 58.9663 95.0104C58.6677 94.5659 58.5573 94.0203 58.6593 93.4938C58.7613 92.9673 59.0675 92.5029 59.5103 92.2028ZM85.0858 61.1369L89.5546 58.1094C89.7739 57.9608 90.0201 57.857 90.2793 57.804C90.5384 57.7509 90.8054 57.7496 91.065 57.8002C91.3246 57.8508 91.5717 57.9522 91.7922 58.0987C92.0127 58.2452 92.2023 58.4339 92.3502 58.654C92.498 58.8741 92.6012 59.1213 92.6539 59.3815C92.7066 59.6418 92.7077 59.9099 92.6572 60.1706C92.6067 60.4313 92.5055 60.6795 92.3595 60.901C92.2135 61.1225 92.0255 61.313 91.8062 61.4616L87.3381 64.4886C87.1189 64.6371 86.8726 64.7409 86.6134 64.794C86.3543 64.847 86.0873 64.8483 85.8277 64.7977C85.5681 64.7471 85.321 64.6457 85.1005 64.4992C84.88 64.3527 84.6904 64.164 84.5426 63.9439C84.3947 63.7238 84.2915 63.4766 84.2388 63.2164C84.1862 62.9562 84.185 62.688 84.2356 62.4273C84.2861 62.1666 84.3872 61.9184 84.5332 61.6969C84.6792 61.4754 84.8673 61.2849 85.0865 61.1363L85.0858 61.1369Z" fill="url(#paint5_linear)"/>
        <path d="M62.9693 67.8695C69.2841 67.7589 74.314 62.5396 74.2039 56.2119C74.0938 49.8841 68.8854 44.8442 62.5707 44.9548C56.2559 45.0654 51.226 50.2847 51.336 56.6124C51.4461 62.9401 56.6545 67.9801 62.9693 67.8695Z" fill="url(#paint6_linear)"/>
        <path d="M20.6396 61.1609C28.0685 61.0301 33.9839 54.7436 33.8521 47.1197C33.7202 39.4958 27.591 33.4215 20.1621 33.5524C12.7332 33.6832 6.81783 39.9697 6.94969 47.5936C7.08155 55.2175 13.2107 61.2918 20.6396 61.1609Z" fill="url(#paint7_linear)"/>
        <path d="M79.8801 79.1418C79.7018 75.24 78.6231 71.658 76.5576 68.2043C73.6453 63.3345 69.1872 59.4368 64.8685 55.6497C60.7235 52.0302 56.4225 48.2724 53.7444 43.7945C51.9304 40.7612 50.9734 37.628 50.8258 34.2139C50.7571 32.9791 49.4585 32.4868 48.3051 33.0922L23.9549 47.7921C23.3771 48.1409 23.0195 48.7603 23.0534 49.3779C23.2211 53.2872 24.3104 56.8618 26.3763 60.3162C29.2891 65.1868 33.746 69.0842 38.0597 72.8613C42.2215 76.4836 46.5115 80.2481 49.1895 84.7261C51.0036 87.7593 51.961 90.8933 52.1082 94.3066C52.1858 95.6539 53.6236 96.0362 54.6293 95.4291L78.9795 80.7292C79.5573 80.3804 79.9034 79.767 79.8806 79.1426L79.8801 79.1418Z" fill="#7AECB5"/>
        <path d="M44.1942 66.8389C46.2962 70.3539 50.8362 71.4912 54.3346 69.3793C57.8329 67.2673 58.9648 62.7059 56.8627 59.191C54.7607 55.6761 50.2207 54.5387 46.7224 56.6506C43.224 58.7626 42.0921 63.324 44.1942 66.8389Z" fill="url(#paint8_linear)"/>
        <path fill-rule="evenodd" clip-rule="evenodd" d="M47.6371 41.1707L48.7309 43.6417L49.8254 46.1122C49.9329 46.3547 49.9916 46.6162 49.9983 46.8817C50.0051 47.1472 49.9596 47.4115 49.8646 47.6595C49.7696 47.9075 49.6269 48.1345 49.4446 48.3273C49.2623 48.5201 49.044 48.6751 48.8022 48.7833C48.5604 48.8916 48.2998 48.951 48.0353 48.9582C47.7708 48.9654 47.5076 48.9203 47.2606 48.8253C47.0137 48.7304 46.7879 48.5875 46.5961 48.4049C46.4043 48.2223 46.2503 48.0035 46.1429 47.7609L45.0491 45.2899L43.9541 42.8186C43.7371 42.3288 43.723 41.7722 43.9149 41.2713C44.1068 40.7704 44.4889 40.3661 44.9773 40.1475C45.4656 39.9288 46.0201 39.9137 46.5189 40.1055C47.0176 40.2972 47.4197 40.6801 47.6366 41.1699L47.6371 41.1707ZM77.4898 75.6492C78.6537 78.2775 78.6538 78.2775 79.8177 80.9058L74.0154 77.1665C74.2323 77.6563 74.2464 78.2129 74.0545 78.7138C73.8626 79.2147 73.4805 79.619 72.9922 79.8376C72.5038 80.0563 71.9493 80.0714 71.4506 79.8796C70.9518 79.6879 70.5498 79.305 70.3328 78.8152L69.2386 76.3434L68.144 73.8729C68.0366 73.6304 67.9778 73.3689 67.9711 73.1034C67.9644 72.838 68.0098 72.5736 68.1048 72.3256C68.1999 72.0776 68.3426 71.8507 68.5249 71.6578C68.7071 71.465 68.9254 71.31 69.1672 71.2018C69.409 71.0935 69.6696 71.0341 69.9341 71.0269C70.1986 71.0197 70.4619 71.0648 70.7088 71.1598C70.9557 71.2547 71.1816 71.3976 71.3733 71.5802C71.5651 71.7628 71.7191 71.9816 71.8266 72.2242L77.4898 75.6492ZM30.1667 51.9714L32.355 56.9129C32.572 57.4027 32.5861 57.9593 32.3942 58.4603C32.2023 58.9612 31.8202 59.3654 31.3318 59.5841C30.8435 59.8027 30.289 59.8178 29.7902 59.6261C29.2915 59.4344 28.8894 59.0515 28.6725 58.5617L26.4841 53.6202C26.2672 53.1304 26.2531 52.5738 26.445 52.0729C26.6369 51.5719 27.019 51.1677 27.5073 50.949C27.9957 50.7304 28.5502 50.7153 29.0489 50.907C29.5477 51.0987 29.9497 51.4816 30.1667 51.9714ZM55.6998 81.6751L57.8891 86.6182C58.1061 87.108 58.1202 87.6646 57.9283 88.1656C57.7364 88.6665 57.3542 89.0707 56.8659 89.2894C56.3776 89.508 55.823 89.5231 55.3243 89.3314C54.8256 89.1397 54.4235 88.7568 54.2066 88.267L52.0185 83.3242C51.9111 83.0817 51.8524 82.8202 51.8456 82.5547C51.8389 82.2892 51.8844 82.0249 51.9794 81.7769C52.0744 81.5288 52.2171 81.3019 52.3994 81.1091C52.5817 80.9163 52.7999 80.7613 53.0418 80.6531C53.2836 80.5448 53.5441 80.4854 53.8086 80.4782C54.0732 80.4709 54.3364 80.5161 54.5833 80.611C54.8303 80.706 55.0561 80.8488 55.2479 81.0315C55.4397 81.2141 55.5937 81.4329 55.7011 81.6754L55.6998 81.6751Z" fill="url(#paint9_linear)"/>
        <path d="M80.7324 73.5371L103.318 88.4571C106.215 90.3718 107.991 93.6398 108.052 97.1713L108.218 106.767L82.045 89.4868L80.7333 73.5371H80.7324Z" fill="#3874A4"/>
        <path d="M27.2531 69.6492L83.8506 66.9053C92.9817 66.4236 97.0699 69.9335 97.2298 79.1686L97.1858 128.346C97.3457 137.582 92.3606 140.861 83.2174 140.701L14.5624 139.476C5.42194 139.315 1.33559 135.963 1.19022 127.566L0.597398 86.275C0.58905 85.7928 0.605736 85.3157 0.645594 84.8428C-0.219159 70.3813 2.78307 62.0247 9.65314 59.7692C5.82075 62.0139 4.70912 64.247 6.3229 66.4701C9.03181 70.2037 18.9811 69.9608 27.2531 69.6492Z" fill="url(#paint10_linear)"/>
        <path d="M100.283 97.0073C97.1508 97.4465 93.3451 97.8939 88.8647 98.3494C82.8371 98.9629 78.2884 103.945 78.3901 109.821C78.395 110.101 78.4121 110.381 78.4423 110.66C79.012 115.933 83.8813 119.753 89.3196 119.193L97.3381 118.369C103.726 117.712 108.546 112.432 108.442 106.204C108.382 102.553 108.216 99.0348 107.946 95.647L107.939 95.649L107.938 95.636C107.907 93.8461 106.432 90.6297 104.217 89.3049C105.481 90.2549 107.928 95.0359 100.247 96.9848L100.282 97.0074L100.283 97.0073Z" fill="#64DAEC"/>
        <path d="M90.3822 116.324C94.0969 116.259 97.0559 113.189 96.9912 109.467C96.9265 105.745 93.8626 102.78 90.1479 102.845C86.4332 102.91 83.4743 105.981 83.539 109.703C83.6037 113.425 86.6675 116.389 90.3822 116.324Z" fill="#122E46"/>
        <path d="M48.8882 27.1989C56.3171 27.068 62.235 20.9262 62.1062 13.4808C61.9774 6.03542 55.8507 0.105813 48.4219 0.236679C40.993 0.367545 35.0751 6.50933 35.2039 13.9547C35.3326 21.4002 41.4593 27.3298 48.8882 27.1989Z" fill="url(#paint11_linear)"/>
    </g>
    <defs>
        <linearGradient id="paint0_linear" x1="42.3515" y1="124.956" x2="39.9988" y2="-8.71603" gradientUnits="userSpaceOnUse">
            <stop stop-color="#FF7700"/>
            <stop offset="1" stop-color="#F65800"/>
        </linearGradient>
        <radialGradient id="paint1_radial" cx="0" cy="0" r="1" gradientUnits="userSpaceOnUse" gradientTransform="translate(23.448 77.6058) rotate(44.3686) scale(41.6822 30.2531)">
            <stop stop-color="#3874A4"/>
            <stop offset="1" stop-color="#64DAEC"/>
        </radialGradient>
        <linearGradient id="paint2_linear" x1="65.3067" y1="22.5939" x2="51.5002" y2="77.5526" gradientUnits="userSpaceOnUse">
            <stop stop-color="#7AECB5"/>
            <stop offset="1" stop-color="#52A77E"/>
        </linearGradient>
        <linearGradient id="paint3_linear" x1="28.3692" y1="56.3289" x2="39.0122" y2="110.626" gradientUnits="userSpaceOnUse">
            <stop stop-color="#7AECB5"/>
            <stop offset="1" stop-color="#52A77E"/>
        </linearGradient>
        <linearGradient id="paint4_linear" x1="73.998" y1="63.9487" x2="62.7857" y2="73.654" gradientUnits="userSpaceOnUse">
            <stop stop-color="#52A77E"/>
            <stop offset="1" stop-color="#7AECB5"/>
        </linearGradient>
        <linearGradient id="paint5_linear" x1="87.8356" y1="52.7449" x2="68.2072" y2="64.2916" gradientUnits="userSpaceOnUse">
            <stop stop-color="#52A77E"/>
            <stop offset="1" stop-color="#7AECB5"/>
        </linearGradient>
        <linearGradient id="paint6_linear" x1="50.5817" y1="56.6256" x2="74.8789" y2="56.2029" gradientUnits="userSpaceOnUse">
            <stop stop-color="#DB5B99"/>
            <stop offset="1" stop-color="#FAAFA3"/>
        </linearGradient>
        <linearGradient id="paint7_linear" x1="6.06229" y1="47.6092" x2="34.6462" y2="47.1148" gradientUnits="userSpaceOnUse">
            <stop stop-color="#DB5B99"/>
            <stop offset="1" stop-color="#FAAFA3"/>
        </linearGradient>
        <linearGradient id="paint8_linear" x1="54.19" y1="69.4666" x2="46.525" y2="56.7698" gradientUnits="userSpaceOnUse">
            <stop stop-color="#7AECB5"/>
            <stop offset="1" stop-color="#52A77E"/>
        </linearGradient>
        <linearGradient id="paint9_linear" x1="65.9072" y1="89.3035" x2="38.5604" y2="44.0036" gradientUnits="userSpaceOnUse">
            <stop stop-color="#7AECB5"/>
            <stop offset="1" stop-color="#52A77E"/>
        </linearGradient>
        <linearGradient id="paint10_linear" x1="3.97276" y1="75.1989" x2="51.168" y2="159.237" gradientUnits="userSpaceOnUse">
            <stop stop-color="#3874A4"/>
            <stop offset="1" stop-color="#64DAEC"/>
        </linearGradient>
        <linearGradient id="paint11_linear" x1="34.3165" y1="13.9704" x2="62.9003" y2="13.476" gradientUnits="userSpaceOnUse">
            <stop stop-color="#DB5B99"/>
            <stop offset="1" stop-color="#FAAFA3"/>
        </linearGradient>
        <clipPath id="clip0">
            <rect width="109" height="141" fill="white"/>
        </clipPath>
    </defs>
</svg>
