<svg width="341" height="405" viewBox="0 0 341 405" fill="none" xmlns="http://www.w3.org/2000/svg">
    <path d="M175.335 323.421L119.998 294.886C116.01 292.833 116.507 289.239 121.115 286.862L156.978 268.387L226.769 304.358L190.953 322.834C186.297 325.219 179.323 325.474 175.335 323.421Z" fill="#255C8C"/>
    <path d="M226.76 304.358V302.476L223.535 304.137L226.76 304.358Z" fill="#255C8C"/>
    <path d="M117.299 291.488V289.571L120.609 290.798L117.299 291.488Z" fill="#B1B4C4"/>
    <path d="M175.335 321.53L119.998 293.004C116.01 290.942 116.507 287.356 121.115 284.98L156.978 266.496L226.769 302.476L190.953 320.951C186.297 323.328 179.323 323.592 175.335 321.53Z" fill="#499CC1"/>
    <path d="M157.15 266.581L148.516 240.993L219.069 277.126L226.759 302.476L157.15 266.581Z" fill="#255C8C"/>
    <path d="M224.718 303.523L226.759 302.476L223.716 300.304L224.718 303.523Z" fill="#255C8C"/>
    <path d="M154.927 267.544L146.293 241.956L216.847 278.089L224.708 303.523L154.927 267.544Z" fill="#255C8C"/>
    <path d="M334.064 346.684L60.9224 205.874C57.1062 203.897 53.9863 198.599 53.9863 194.042V5.42894C53.9863 0.86331 57.0966 -1.23211 60.9224 0.744059L334.064 141.52C337.88 143.497 341 148.795 341 153.352V341.965C340.971 346.522 337.88 348.618 334.064 346.684Z" fill="#255C8C"/>
    <path d="M335.438 348.592L338.462 347.033L337.155 339.026L335.438 348.592Z" fill="#255C8C"/>
    <path d="M53.5 1.91101L56.4767 0.369263L60.7605 2.55838C60.7605 2.55838 56.2 3.18019 56.0855 3.15464C55.9711 3.12908 53.5 1.91101 53.5 1.91101Z" fill="#255C8C"/>
    <path d="M331.049 348.183L57.9361 207.407C54.1198 205.431 51 200.132 51 195.575V6.96219C51 2.40508 54.1103 0.309661 57.9361 2.28583L331.049 143.105C334.865 145.072 337.985 150.371 337.985 154.936V343.498C337.985 348.064 334.875 350.159 331.049 348.183Z" fill="#499CC1"/>
    <path d="M334.226 336.709L54.5205 192.509L54.6159 7.72035C54.6159 5.82936 56.1043 5.06275 57.9361 6.01676L331.049 146.785C332.012 147.345 332.814 148.1 333.39 148.987C333.967 149.875 334.302 150.871 334.369 151.895L334.226 336.709Z" fill="white"/>
    <path d="M164.926 86.9543L75.3196 40.7699C74.906 40.5037 74.568 40.1548 74.3327 39.7509C74.0975 39.3471 73.9715 38.8997 73.9648 38.4445V32.8652C73.9648 32.0134 74.5659 31.562 75.3196 31.9453L164.926 78.1297C165.338 78.3972 165.675 78.7465 165.91 79.15C166.145 79.5536 166.272 80.0003 166.281 80.4551V86.0343C166.281 86.9287 165.67 87.3461 164.926 86.9543Z" fill="#5DCBE1"/>
    <path d="M141.914 88.2917L75.7296 54.1773C75.3144 53.9138 74.9745 53.5668 74.7375 53.1643C74.5005 52.7618 74.3729 52.3151 74.3652 51.8604V49.0835C74.3652 48.2317 74.9758 47.7718 75.7296 48.1636L141.914 82.278C142.323 82.5446 142.657 82.893 142.889 83.2952C143.121 83.6975 143.244 84.1425 143.249 84.5949V87.3717C143.249 88.2661 142.658 88.6835 141.914 88.2917Z" fill="#5DCBE1"/>
    <path d="M141.914 98.8113L75.7296 64.7395C75.3144 64.476 74.9745 64.129 74.7375 63.7265C74.5005 63.324 74.3729 62.8773 74.3652 62.4226V59.6287C74.3652 58.7769 74.9758 58.3169 75.7296 58.7088L141.914 92.8487C142.326 93.1136 142.664 93.4611 142.899 93.8635C143.135 94.2658 143.261 94.7118 143.268 95.1656V97.9425C143.249 98.8113 142.658 99.2117 141.914 98.8113Z" fill="#5DCBE1"/>
    <path d="M129.425 102.917L75.7296 75.2335C75.3144 74.9701 74.9745 74.6231 74.7375 74.2206C74.5005 73.8181 74.3729 73.3714 74.3652 72.9167V70.1398C74.3652 69.288 74.9758 68.828 75.7296 69.2199L129.425 96.8947C129.84 97.1604 130.179 97.5091 130.416 97.9129C130.653 98.3167 130.781 98.7644 130.789 99.2201V101.997C130.789 102.891 130.178 103.3 129.425 102.917Z" fill="#255C8C"/>
    <path d="M164.926 197.483L75.3196 151.299C74.906 151.033 74.568 150.684 74.3327 150.28C74.0975 149.876 73.9715 149.429 73.9648 148.974V143.394C73.9648 142.5 74.5659 142.091 75.3196 142.474L164.926 188.659C165.338 188.926 165.675 189.276 165.91 189.679C166.145 190.083 166.272 190.529 166.281 190.984V196.563C166.281 197.458 165.67 197.867 164.926 197.483Z" fill="#5DCBE1"/>
    <path d="M141.914 198.821L75.7296 164.749C75.3147 164.483 74.9753 164.134 74.7384 163.731C74.5015 163.327 74.3737 162.879 74.3652 162.423V159.647C74.3652 158.752 74.9758 158.343 75.7296 158.735L141.914 192.807C142.326 193.075 142.662 193.424 142.897 193.827C143.133 194.231 143.26 194.678 143.268 195.132V197.909C143.249 198.795 142.658 199.204 141.914 198.821Z" fill="#5DCBE1"/>
    <path d="M141.914 209.349L75.7296 175.234C75.3155 174.97 74.9764 174.623 74.7395 174.22C74.5026 173.818 74.3744 173.372 74.3652 172.918V170.141C74.3652 169.289 74.9758 168.837 75.7296 169.229L141.914 203.301C142.326 203.569 142.662 203.918 142.897 204.321C143.133 204.725 143.26 205.172 143.268 205.626V208.403C143.249 209.323 142.658 209.732 141.914 209.349Z" fill="#5DCBE1"/>
    <path d="M129.425 213.437L75.7296 185.763C75.3142 185.497 74.9743 185.149 74.7374 184.745C74.5004 184.341 74.373 183.893 74.3652 183.437V180.66C74.3652 179.766 74.9758 179.357 75.7296 179.749L129.425 207.424C129.84 207.689 130.179 208.038 130.416 208.442C130.653 208.846 130.781 209.293 130.789 209.749V212.526C130.789 213.42 130.178 213.804 129.425 213.437Z" fill="#255C8C"/>
    <path d="M188.902 211.197C188.902 211.197 198.786 218.608 213.059 208.489C223.249 201.027 232.36 205.286 237.436 207.841C242.511 210.397 249.839 211.964 263.797 234.468C263.797 234.468 268.338 241.521 275.837 245.388C283.336 249.256 286.942 247.365 292.839 239.426C298.735 231.487 302.599 222.697 313.437 228.438V308.242L187.929 243.617V210.678L188.902 211.197Z" fill="url(#paint0_linear)"/>
    <path d="M161.625 177.364L75.7588 133.071C75.344 132.805 75.0046 132.456 74.7677 132.052C74.5308 131.649 74.403 131.201 74.3945 130.745V86.5113C74.3945 85.6596 75.0051 85.2081 75.7588 85.5914L161.625 129.885C162.04 130.151 162.38 130.499 162.617 130.903C162.853 131.307 162.981 131.754 162.99 132.21V176.461C162.99 177.338 162.379 177.747 161.625 177.364Z" fill="#5DCBE1"/>
    <path d="M187.929 209.34V243.6L313.437 308.285V228.48" stroke="#E9EAF2" stroke-width="0.31" stroke-miterlimit="10"/>
    <path d="M237.254 208.242V268.941" stroke="#F4F5FC" stroke-width="0.31" stroke-miterlimit="10"/>
    <path d="M275.655 246.632V288.728" stroke="#F4F5FC" stroke-width="0.31" stroke-miterlimit="10"/>
    <path d="M187.929 210.678C210.197 223.003 213.345 195.141 237.607 207.645C261.869 220.15 258.521 236.444 276.429 245.678C294.336 254.911 294.756 218.846 313.437 228.48" stroke="#DFE0EA" stroke-width="1.53" stroke-miterlimit="10"/>
    <path d="M239.342 211.49C240.497 210.895 240.495 208.963 239.338 207.174C238.182 205.386 236.308 204.418 235.154 205.014C233.999 205.609 234.001 207.541 235.158 209.329C236.314 211.118 238.188 212.085 239.342 211.49Z" fill="#5DCBE1"/>
    <path d="M317.283 232.653C318.442 232.058 318.445 230.119 317.288 228.323C316.132 226.526 314.254 225.552 313.094 226.147C311.934 226.742 311.932 228.681 313.088 230.478C314.245 232.274 316.123 233.249 317.283 232.653Z" fill="#5DCBE1"/>
    <path d="M279.342 250.127C280.502 249.532 280.505 247.593 279.348 245.797C278.191 244 276.314 243.026 275.154 243.621C273.994 244.216 273.991 246.155 275.148 247.952C276.305 249.748 278.182 250.722 279.342 250.127Z" fill="#5DCBE1"/>
    <path d="M190.023 213.924C191.177 213.329 191.176 211.396 190.019 209.608C188.863 207.819 186.989 206.852 185.835 207.447C184.68 208.042 184.682 209.974 185.838 211.763C186.995 213.551 188.868 214.519 190.023 213.924Z" fill="#5DCBE1"/>
    <path d="M191.468 151.819L186.325 149.169C185.91 148.904 185.571 148.555 185.334 148.151C185.097 147.748 184.969 147.3 184.961 146.844V124.697C184.961 123.803 185.572 123.394 186.325 123.777L191.468 126.435C191.882 126.691 192.223 127.031 192.465 127.425C192.707 127.82 192.842 128.26 192.861 128.709V150.899C192.861 151.793 192.221 152.202 191.468 151.819Z" fill="#5DCBE1"/>
    <path d="M203.356 157.926L198.214 155.268C197.799 155.005 197.459 154.658 197.222 154.255C196.985 153.853 196.857 153.406 196.85 152.951V107.806C196.85 106.954 197.46 106.494 198.214 106.886L203.356 109.544C203.771 109.81 204.111 110.158 204.348 110.562C204.584 110.966 204.712 111.413 204.721 111.869V157.014C204.683 157.9 204.072 158.309 203.356 157.926Z" fill="#255C8C"/>
    <path d="M227.007 170.132L221.864 167.483C221.448 167.219 221.107 166.871 220.87 166.466C220.633 166.062 220.506 165.614 220.5 165.158V124.408C220.5 123.513 221.111 123.105 221.864 123.488L227.007 126.137C227.422 126.403 227.761 126.751 227.998 127.155C228.235 127.559 228.363 128.007 228.371 128.462V169.221C228.371 170.115 227.76 170.524 227.007 170.132Z" fill="#5DCBE1"/>
    <path d="M238.857 176.24L233.715 173.59C233.3 173.325 232.961 172.976 232.724 172.572C232.487 172.169 232.359 171.721 232.351 171.265V137.5C232.351 136.648 232.961 136.197 233.715 136.58L238.857 139.238C239.273 139.501 239.612 139.848 239.849 140.251C240.086 140.653 240.214 141.1 240.222 141.554V175.32C240.222 176.223 239.611 176.631 238.857 176.24Z" fill="#255C8C"/>
    <path d="M262.451 188.403L257.299 185.754C256.886 185.488 256.548 185.139 256.312 184.735C256.077 184.331 255.951 183.884 255.944 183.429V166.742C255.944 165.839 256.545 165.43 257.299 165.822L262.451 168.471C262.863 168.739 263.2 169.088 263.435 169.492C263.67 169.895 263.797 170.342 263.806 170.797V187.483C263.806 188.378 263.195 188.787 262.451 188.403Z" fill="#5DCBE1"/>
    <path d="M274.291 194.511L269.187 191.853C268.771 191.59 268.432 191.243 268.195 190.84C267.957 190.438 267.83 189.991 267.822 189.536V132.781C267.822 131.878 268.433 131.469 269.187 131.861L274.329 134.51C274.744 134.775 275.084 135.124 275.321 135.528C275.558 135.932 275.686 136.38 275.693 136.836V193.591C275.655 194.485 275.045 194.894 274.291 194.511Z" fill="#255C8C"/>
    <path d="M303.19 209.408L298.048 206.751C297.633 206.487 297.293 206.14 297.056 205.738C296.819 205.335 296.691 204.889 296.684 204.434V187.739C296.684 186.844 297.294 186.436 298.048 186.819L303.19 189.476C303.607 189.741 303.947 190.089 304.185 190.493C304.422 190.897 304.548 191.346 304.555 191.802V208.489C304.555 209.383 303.944 209.792 303.19 209.408Z" fill="#5DCBE1"/>
    <path d="M315.04 215.507L309.898 212.85C309.481 212.585 309.14 212.237 308.903 211.833C308.666 211.429 308.539 210.98 308.533 210.524V188.378C308.533 187.483 309.144 187.074 309.898 187.458L315.04 190.107C315.455 190.373 315.794 190.721 316.031 191.125C316.268 191.529 316.396 191.976 316.404 192.432V214.621C316.404 215.507 315.794 215.899 315.04 215.507Z" fill="#255C8C"/>
    <path d="M239.01 283.966C239.964 282.578 247.406 281.658 249.848 287.271C250.802 289.401 250.63 294.844 251.403 298.259C252.176 301.675 253.998 303.617 254.657 306.385C255.315 309.154 254.246 313.805 246.757 314.631C239.267 315.457 233.514 313.106 231.749 310.977C229.984 308.847 229.946 304.316 231.749 301.879C233.552 299.443 234.984 297.476 234.936 294.307L239.01 283.966Z" fill="url(#paint1_linear)"/>
    <path d="M243.913 283.004C243.913 283.004 238.322 281.564 234.935 284.256C233.819 285.176 233.007 286.352 232.587 287.655C232.166 288.959 232.154 290.34 232.55 291.649C232.998 293.225 233.905 295.372 235.307 295.491C236.71 295.61 243.913 283.004 243.913 283.004Z" fill="url(#paint2_linear)"/>
    <path d="M246.051 296.607C246.051 296.607 245.679 302.161 245.794 302.569C245.908 302.978 248.236 303.421 248.894 303.864C249.553 304.307 245.507 309.989 243.456 310.823C241.405 311.658 235.041 309.52 234.593 306.701C234.192 304.094 236.415 302.075 237.274 301.368C237.857 301.319 238.444 301.305 239.029 301.326L239.22 298.634C242.006 297.842 246.051 296.607 246.051 296.607Z" fill="#F4F5FC"/>
    <path d="M231.024 307.109C231.024 306.948 230.07 307.399 230.07 307.408C230.07 307.416 229.622 321.675 228.84 322.97C226.846 325.994 221.57 331.122 221.436 331.692C221.045 333.396 222.171 331.871 223.983 331.692C225.004 331.582 231.005 326.164 232.351 324.929L232.436 324.972V324.835L232.608 324.673C232.642 324.288 232.642 323.901 232.608 323.515C235.136 308.021 232.064 306.99 231.024 307.109Z" fill="#F4F5FC"/>
    <path d="M246.9 303.115C248.655 303.353 250.649 304.188 250.926 305.04C251.648 308.122 251.477 311.318 250.43 314.324C248.913 317.902 247.892 320.176 247.014 321.718C247.014 321.718 239.448 324.614 233.342 321.232C233.342 321.232 232.923 317.399 232.894 315.346C227.265 310.96 232.083 305.551 236.853 301.351C237.425 301.305 237.999 301.305 238.571 301.351C238.571 301.351 234.315 305.849 237.273 308.404C243.618 306.65 244.877 304.094 246.9 303.115Z" fill="#DFE0EA"/>
    <path d="M234.42 289.716C235.04 286.147 237.931 283.447 242.053 283.66C243.714 283.74 245.304 284.284 246.6 285.216C247.895 286.147 248.829 287.419 249.27 288.851C249.711 290.283 249.637 291.802 249.057 293.194C248.478 294.586 247.422 295.78 246.041 296.607C245.899 297.148 245.684 297.671 245.402 298.166C243.942 299.682 240.059 300.644 238.78 300.661C237.674 300.661 236.72 299.75 235.68 298.217C233.524 295.023 234.077 291.479 234.42 289.716Z" fill="#F4F5FC"/>
    <path d="M243.341 283.728C246.203 284.23 248.607 284.963 249.399 287.493C249.933 289.247 250.639 292.603 249.971 293.975L249.552 294.988L246.05 296.607C246.05 296.607 244.409 295.389 244.924 291.82C244.904 291.338 244.732 290.872 244.428 290.474C244.209 290.136 244.045 289.772 243.942 289.392C243.526 288.428 242.714 287.642 241.671 287.195C239.066 285.891 235.25 287.016 234.716 287.493C235.454 286.078 236.712 284.933 238.282 284.248C239.852 283.563 241.638 283.379 243.341 283.728Z" fill="url(#paint3_linear)"/>
    <path d="M248.608 396.676C247.139 397.741 244.858 397.008 244.792 397.102C243.082 398.41 241.292 399.633 239.43 400.765C238.476 401.403 237.092 402.264 237.35 403.49C237.808 405.696 241.758 405.024 243.246 404.342C244.734 403.661 245.955 402.553 247.368 401.787C248.369 401.233 249.362 400.935 249.524 399.81C249.571 399.103 248.865 396.65 248.608 396.676Z" fill="#122E46"/>
    <path d="M249.467 399.333C249.267 400.424 248.293 400.722 247.292 401.276C245.86 402.068 244.601 403.218 243.113 403.891C241.624 404.564 238.295 405.126 237.331 403.558C237.856 405.679 241.739 405.015 243.208 404.342C244.677 403.669 245.918 402.553 247.33 401.787C248.332 401.233 249.324 400.935 249.486 399.81C249.494 399.651 249.487 399.492 249.467 399.333Z" fill="#122E46"/>
    <path d="M238.332 394.845C236.987 395.824 234.964 395.27 234.869 395.364C233.301 396.554 231.665 397.668 229.965 398.703C229.125 399.291 227.818 400.075 228.057 401.199C228.477 403.218 232.093 402.596 233.467 401.983C234.84 401.369 235.938 400.339 237.235 399.623C238.189 399.112 239.057 398.848 239.201 397.809C239.296 397.178 238.571 394.819 238.332 394.845Z" fill="#122E46"/>
    <path d="M239.191 397.391C239.01 398.388 238.113 398.661 237.197 399.163C235.89 399.896 234.736 400.943 233.381 401.565C232.026 402.187 228.973 402.698 228.086 401.259C228.563 403.201 232.122 402.596 233.476 401.983C234.831 401.369 235.947 400.339 237.245 399.623C238.199 399.112 239.067 398.848 239.21 397.809C239.223 397.669 239.216 397.529 239.191 397.391Z" fill="#122E46"/>
    <path d="M230.433 334.026C231.081 329.512 232.942 322.953 232.942 322.953C234.701 323.686 236.603 324.106 238.542 324.188C241.386 324.179 244.222 323.934 247.014 323.455C247.925 324.877 248.922 326.254 250.001 327.578C251.46 329.384 254.294 333.336 253.607 340.244C253.159 344.759 250.325 363.933 250.325 363.933C251.429 367.156 252.016 370.503 252.071 373.873C251.803 377.881 251.21 381.867 250.296 385.798L248.608 396.676C248.608 396.676 246.356 398.132 244.791 397.102L244.992 386.454C244.801 383.848 244.505 380.006 244.324 377.553C244.019 373.55 243.217 367.204 242.988 365.628C242.759 364.052 242.187 361.267 241.91 358.166C241.633 355.066 240.336 339.282 240.336 339.282L240.155 342.238C240.155 342.238 239.973 347.033 239.201 352.953C238.428 358.873 238.161 361.471 238.161 361.471C238.893 362.665 239.405 363.956 239.678 365.296C239.811 366.573 241.443 376.693 240.469 381.837L238.456 394.93C237.957 395.239 237.383 395.437 236.78 395.509C236.178 395.58 235.565 395.521 234.993 395.338L233.81 382.144C233.018 377.127 231.339 366.488 231.081 365.108C230.509 362.321 230.171 359.499 230.07 356.667C229.65 350.943 229.784 338.532 230.433 334.026Z" fill="#F4F5FC"/>
    <path d="M247.014 321.718L251.365 329.512C251.365 329.512 258.043 338.183 251.126 360.475L252.414 367.357C252.414 367.357 239.401 374.81 230.69 367.357C230.69 367.357 227.675 346.752 229.278 337.255C230.175 331.797 231.53 326.407 233.333 321.13C233.333 321.13 235.47 323.234 246.442 321.846" fill="#255C8C"/>
    <path d="M236.853 301.351C236.853 301.351 233.4 300.406 229.727 307.246L231.1 307.978C231.1 307.978 234.716 303.106 236.853 301.351Z" fill="#E6E7F3"/>
    <path d="M209.882 338.413L224.746 330.704L235.413 336.198L220.548 343.916L209.882 338.413Z" fill="#499CC1"/>
    <path d="M222.828 331.266C221.896 331.35 220.995 331.611 220.185 332.033C219.888 332.265 219.569 332.473 219.231 332.655C219.088 332.715 218.945 332.8 218.792 332.859C218.565 332.934 218.36 333.053 218.191 333.209C218.025 333.427 217.936 333.685 217.934 333.95C217.858 334.266 217.838 334.591 217.876 334.912C218.01 335.389 218.563 335.347 218.831 335.014C218.976 334.848 219.059 334.646 219.069 334.435C219.077 334.234 219.138 334.037 219.248 333.861C219.357 333.685 219.512 333.534 219.699 333.421L223.248 331.454C223.207 331.389 223.145 331.336 223.07 331.303C222.995 331.27 222.911 331.257 222.828 331.266Z" fill="#F4F5FC"/>
    <path d="M251.107 307.501C250.62 305.696 249.037 306.275 247.672 305.219C244.514 309.213 246.613 320.014 247.043 321.164L234.907 328.072L234.086 328.524C232.705 329.334 231.179 329.927 229.574 330.278C228.362 330.406 227.732 331.931 226.435 332.067C226.336 332.07 226.24 332.099 226.159 332.151C226.079 332.202 226.017 332.274 225.981 332.356C225.945 332.439 225.938 332.529 225.959 332.615C225.98 332.702 226.03 332.781 226.101 332.842C226.616 333.285 228.009 332.919 228.963 331.931C228.958 331.953 228.958 331.976 228.963 331.999C228.971 332.157 229.024 332.31 229.118 332.445C229.211 332.579 229.342 332.69 229.497 332.766C229.567 332.803 229.645 332.827 229.726 332.834C229.726 332.906 229.749 332.977 229.793 333.038C229.862 333.163 229.964 333.271 230.09 333.353C230.217 333.435 230.364 333.487 230.518 333.507C230.586 333.681 230.716 333.832 230.888 333.934C231.06 334.037 231.265 334.088 231.472 334.077C231.751 334.065 232.013 333.958 232.207 333.779C233.242 333.427 234.156 332.84 234.859 332.076C235.481 331.499 236.137 330.953 236.825 330.44C240.116 329.171 249.991 325.406 250.43 324.869C251.117 324.06 251.813 310.057 251.107 307.501Z" fill="#F4F5FC"/>
    <path d="M252.214 312.348C252.214 312.348 248.331 313.898 245.106 312.45L245.574 307.024C245.574 307.024 245.622 304.111 248.532 303.822C251.442 303.532 252.968 306.863 252.214 312.348Z" fill="#E6E7F3"/>
    <path fill-rule="evenodd" clip-rule="evenodd" d="M31.0001 308.779C14.4316 308.779 1.00018 301.025 1.00018 291.46C1.00018 291.459 1.00018 291.459 1.00018 291.459L1.00002 291.459V284.037L3.12383 285.047C7.53864 278.657 18.3558 274.141 31.0001 274.141C43.9181 274.141 54.9291 278.854 59.154 285.465L60.9873 283.829V290.951C60.9957 291.12 61 291.289 61 291.46C61 301.025 47.5686 308.779 31.0001 308.779Z" fill="#9DECE6"/>
    <path d="M31.0001 301.357C14.4316 301.357 1.00018 293.603 1.00018 284.038C1.00018 274.473 14.4316 266.719 31.0001 266.719C47.5686 266.719 61 274.473 61 284.038C61 293.603 47.5686 301.357 31.0001 301.357Z" fill="#D0FFFB"/>
    <path d="M9.55848 284.572C9.85952 287.491 11.9423 290.366 15.8067 292.602C24.199 297.437 37.7951 297.437 46.1875 292.602C50.0519 290.366 52.1285 287.491 52.4295 284.572C52.792 281.163 50.7031 277.673 46.1875 275.068C37.7951 270.221 24.199 270.221 15.8067 275.068C11.2849 277.673 9.20214 281.163 9.55848 284.572Z" fill="#CC8B09"/>
    <path d="M9.55864 284.572C9.85968 287.49 11.9424 290.366 15.8068 292.602C24.1992 297.437 37.7953 297.437 46.1876 292.602C50.0521 290.366 52.1286 287.49 52.4297 284.572C52.1286 281.66 50.0521 278.785 46.1876 276.549C37.7953 271.701 24.1992 271.701 15.8068 276.549C11.9424 278.779 9.85968 281.66 9.55864 284.572Z" fill="#E8A30A"/>
    <path d="M31.3133 280.518C31.5766 280.517 31.8396 280.538 32.0997 280.579C32.4499 280.628 32.8492 280.702 33.2854 280.794C33.7216 280.886 34.1824 281.003 34.6493 281.144C35.1111 281.283 35.5628 281.453 36.0009 281.654L32.5482 283.651L31.9338 283.43C31.0614 283.141 30.232 282.889 29.4763 282.686C28.7467 282.491 27.9998 282.367 27.2461 282.318C26.5568 282.274 25.8648 282.322 25.1879 282.459C24.4972 282.603 23.835 282.861 23.2281 283.221C22.6294 283.524 22.1177 283.974 21.7413 284.529C21.6173 284.728 21.5339 284.949 21.4959 285.18C21.4579 285.411 21.4662 285.647 21.5201 285.875C21.6694 286.382 21.949 286.842 22.3311 287.208C22.8047 287.679 23.3327 288.091 23.9039 288.437L21.6737 289.715L22.9025 290.409L25.1142 289.131C26.1698 289.646 27.2726 290.057 28.4073 290.36C29.5933 290.691 30.8063 290.917 32.0321 291.036L33.1932 288.965C32.8686 288.957 32.5446 288.933 32.2225 288.891C31.7374 288.834 31.2555 288.752 30.7788 288.646C30.2443 288.529 29.6852 288.388 29.0954 288.209C28.5176 288.047 27.9528 287.842 27.4058 287.595L30.8402 285.617L31.2887 285.77L31.7556 285.918C32.6219 286.2 33.4083 286.422 34.1271 286.581C34.7923 286.738 35.4715 286.829 36.1545 286.852C36.7532 286.879 37.3529 286.823 37.9362 286.686C38.5172 286.549 39.0743 286.325 39.5889 286.022C40.1552 285.727 40.6469 285.307 41.0265 284.794C41.3065 284.41 41.4435 283.941 41.4136 283.467C41.3632 282.972 41.1664 282.503 40.8483 282.121C40.4513 281.63 39.9809 281.203 39.4537 280.856L41.4873 279.682L40.2893 278.994L38.2741 280.155C37.3292 279.687 36.3363 279.322 35.3128 279.068C34.3397 278.819 33.3501 278.641 32.3516 278.533L31.3133 280.518ZM37.1744 284.13C36.7229 284.392 36.2009 284.506 35.6815 284.456C34.9814 284.373 34.2917 284.219 33.6233 283.995L36.8549 282.152C38.0386 282.91 38.1451 283.569 37.1744 284.13ZM25.8453 285.076C26.3383 284.807 26.9055 284.706 27.4611 284.787C28.2262 284.885 28.9808 285.052 29.7159 285.285L26.5088 287.128C25.1367 286.297 24.9156 285.613 25.8453 285.076Z" fill="#CC8B09"/>
    <path d="M33.1689 288.978C33.1321 288.892 33.1689 287.816 33.1689 287.816L31.848 288.664L32.4194 289.543L33.1689 288.978Z" fill="#CC8B09"/>
    <path d="M21.6803 289.715V288.554L24.5371 288.769L22.8967 289.887L21.6803 289.715Z" fill="#CC8B09"/>
    <path d="M21.4401 285.445V284.271L23.5781 285.046L21.4401 285.445Z" fill="#CC8B09"/>
    <path d="M30.2754 285.383L29.5627 284.701L27.0561 286.434L27.2158 286.944C27.2158 286.944 29.0589 286.157 29.145 286.108L30.2754 285.383Z" fill="#CC8B09"/>
    <path d="M36.8428 281.715L33.519 283.601L32.837 283.11C32.837 283.11 33.2548 282.631 33.2855 282.582C33.5867 282.243 33.9366 281.951 34.3238 281.715C34.5696 281.672 36.167 280.966 36.167 280.966L36.8428 281.715Z" fill="#CC8B09"/>
    <path d="M31.3135 280.518V279.357L32.8372 278.859L33.1689 279.769L33.0891 280.186L31.3135 280.518Z" fill="#CC8B09"/>
    <path d="M41.4629 279.676V278.515L39.6874 278.705L40.2649 279.829L41.4629 279.676Z" fill="#CC8B09"/>
    <path d="M41.3955 283.626V282.397H39.368L39.8596 283.479L40.7197 284.462L41.3955 283.626Z" fill="#CC8B09"/>
    <path d="M31.3133 279.356C31.5767 279.352 31.84 279.373 32.0997 279.418C32.4499 279.467 32.8492 279.534 33.2854 279.627C33.7216 279.719 34.1824 279.842 34.6493 279.983C35.1111 280.121 35.5628 280.292 36.0009 280.493L32.5482 282.465L31.9338 282.25C31.0614 281.955 30.232 281.709 29.4763 281.507C28.7467 281.311 27.9998 281.188 27.2461 281.138C26.5571 281.092 25.8651 281.138 25.1879 281.273C24.4977 281.422 23.836 281.682 23.2281 282.041C22.6282 282.342 22.1161 282.793 21.7413 283.35C21.6173 283.548 21.5339 283.769 21.4959 284C21.4579 284.231 21.4662 284.467 21.5201 284.695C21.6682 285.201 21.9481 285.659 22.3311 286.022C22.8048 286.493 23.3328 286.905 23.9039 287.251L21.7106 288.516L22.9025 289.223L25.1142 287.945C26.1698 288.46 27.2726 288.871 28.4073 289.174C29.5947 289.499 30.8071 289.725 32.0321 289.85L33.1932 287.779C32.8686 287.771 32.5446 287.747 32.2225 287.705C31.7373 287.646 31.2554 287.562 30.7788 287.454C30.2443 287.343 29.6852 287.196 29.0954 287.024C28.5176 286.861 27.9528 286.656 27.4058 286.409L30.8402 284.431L31.2887 284.584L31.7556 284.726C32.5341 284.989 33.3257 285.213 34.1271 285.395C34.7929 285.549 35.4717 285.64 36.1545 285.666C36.7531 285.687 37.3519 285.631 37.9362 285.5C38.5174 285.36 39.0745 285.135 39.5889 284.83C40.1567 284.537 40.6488 284.117 41.0265 283.601C41.3065 283.216 41.4434 282.744 41.4136 282.268C41.3646 281.775 41.1675 281.308 40.8483 280.929C40.4513 280.438 39.9809 280.011 39.4537 279.663L41.4873 278.49L40.2893 277.796L38.2741 278.963C37.3305 278.49 36.3374 278.123 35.3128 277.869C34.3384 277.627 33.3492 277.448 32.3516 277.335L31.3133 279.356ZM37.1744 282.969C36.7222 283.228 36.2002 283.34 35.6815 283.288C34.9804 283.212 34.29 283.057 33.6233 282.827L36.8549 280.984C38.0386 281.746 38.1451 282.408 37.1744 282.969ZM25.8453 283.915C26.3383 283.646 26.9055 283.544 27.4611 283.626C28.2255 283.724 28.9799 283.889 29.7159 284.118L26.5088 285.961C25.1367 285.133 24.9156 284.451 25.8453 283.915Z" fill="#F9CA06"/>
    <path fill-rule="evenodd" clip-rule="evenodd" d="M31.0001 299.066C14.4316 299.066 1.00018 291.312 1.00018 281.747C1.00018 281.747 1.00018 281.746 1.00018 281.746L1.00002 281.746V274.318L3.12686 275.33C7.54359 268.942 18.3587 264.428 31.0001 264.428C43.9173 264.428 54.9277 269.141 59.1533 275.75L60.9873 274.116V281.238C60.9957 281.407 61 281.577 61 281.747C61 291.312 47.5686 299.066 31.0001 299.066Z" fill="#9DECE6"/>
    <path d="M31.0001 291.638C14.4316 291.638 1.00018 283.884 1.00018 274.319C1.00018 264.754 14.4316 257 31.0001 257C47.5686 257 61 264.754 61 274.319C61 283.884 47.5686 291.638 31.0001 291.638Z" fill="#D0FFFB"/>
    <path fill-rule="evenodd" clip-rule="evenodd" d="M30.0001 373.779C13.4316 373.779 0.000175476 366.025 0.000175476 356.46C0.000175476 356.459 0.000175476 356.459 0.000175476 356.459L2.28882e-05 356.459V349.037L2.12383 350.047C6.53864 343.657 17.3558 339.141 30.0001 339.141C42.9181 339.141 53.9291 343.854 58.154 350.465L59.9873 348.829V355.951C59.9957 356.12 60 356.289 60 356.46C60 366.025 46.5686 373.779 30.0001 373.779Z" fill="#9DECE6"/>
    <path d="M30.0001 366.357C13.4316 366.357 0.000175476 358.603 0.000175476 349.038C0.000175476 339.473 13.4316 331.719 30.0001 331.719C46.5686 331.719 60 339.473 60 349.038C60 358.603 46.5686 366.357 30.0001 366.357Z" fill="#D0FFFB"/>
    <path d="M8.55848 349.572C8.85952 352.491 10.9423 355.366 14.8067 357.602C23.199 362.437 36.7951 362.437 45.1875 357.602C49.0519 355.366 51.1285 352.491 51.4295 349.572C51.792 346.163 49.7031 342.673 45.1875 340.068C36.7951 335.221 23.199 335.221 14.8067 340.068C10.2849 342.673 8.20214 346.163 8.55848 349.572Z" fill="#CC8B09"/>
    <path d="M8.55864 349.572C8.85968 352.49 10.9424 355.366 14.8068 357.602C23.1992 362.437 36.7953 362.437 45.1876 357.602C49.0521 355.366 51.1286 352.49 51.4297 349.572C51.1286 346.66 49.0521 343.785 45.1876 341.549C36.7953 336.701 23.1992 336.701 14.8068 341.549C10.9424 343.779 8.85968 346.66 8.55864 349.572Z" fill="#E8A30A"/>
    <path d="M30.3133 345.518C30.5766 345.517 30.8396 345.538 31.0997 345.579C31.4499 345.628 31.8492 345.702 32.2854 345.794C32.7216 345.886 33.1824 346.003 33.6493 346.144C34.1111 346.283 34.5628 346.453 35.0009 346.654L31.5482 348.651L30.9338 348.43C30.0614 348.141 29.232 347.889 28.4763 347.686C27.7467 347.491 26.9998 347.367 26.2461 347.318C25.5568 347.274 24.8648 347.322 24.1879 347.459C23.4972 347.603 22.835 347.861 22.2281 348.221C21.6294 348.524 21.1177 348.974 20.7413 349.529C20.6173 349.728 20.5339 349.949 20.4959 350.18C20.4579 350.411 20.4662 350.647 20.5201 350.875C20.6694 351.382 20.949 351.842 21.3311 352.208C21.8047 352.679 22.3327 353.091 22.9039 353.437L20.6737 354.715L21.9025 355.409L24.1142 354.131C25.1698 354.646 26.2726 355.057 27.4073 355.36C28.5933 355.691 29.8063 355.917 31.0321 356.036L32.1932 353.965C31.8686 353.957 31.5446 353.933 31.2225 353.891C30.7374 353.834 30.2555 353.752 29.7788 353.646C29.2443 353.529 28.6852 353.388 28.0954 353.209C27.5176 353.047 26.9528 352.842 26.4058 352.595L29.8402 350.617L30.2887 350.77L30.7556 350.918C31.6219 351.2 32.4083 351.422 33.1271 351.581C33.7923 351.738 34.4715 351.829 35.1545 351.852C35.7532 351.879 36.3529 351.823 36.9362 351.686C37.5172 351.549 38.0743 351.325 38.5889 351.022C39.1552 350.727 39.6469 350.307 40.0265 349.794C40.3065 349.41 40.4435 348.941 40.4136 348.467C40.3632 347.972 40.1664 347.503 39.8483 347.121C39.4513 346.63 38.9809 346.203 38.4537 345.856L40.4873 344.682L39.2893 343.994L37.2741 345.155C36.3292 344.687 35.3363 344.322 34.3128 344.068C33.3397 343.819 32.3501 343.641 31.3516 343.533L30.3133 345.518ZM36.1744 349.13C35.7229 349.392 35.2009 349.506 34.6815 349.456C33.9814 349.373 33.2917 349.219 32.6233 348.995L35.8549 347.152C37.0386 347.91 37.1451 348.569 36.1744 349.13ZM24.8453 350.076C25.3383 349.807 25.9055 349.706 26.4611 349.787C27.2262 349.885 27.9808 350.052 28.7159 350.285L25.5088 352.128C24.1367 351.297 23.9156 350.613 24.8453 350.076Z" fill="#CC8B09"/>
    <path d="M32.1689 353.978C32.1321 353.892 32.1689 352.816 32.1689 352.816L30.848 353.664L31.4194 354.543L32.1689 353.978Z" fill="#CC8B09"/>
    <path d="M20.6803 354.715V353.554L23.5371 353.769L21.8967 354.887L20.6803 354.715Z" fill="#CC8B09"/>
    <path d="M20.4401 350.445V349.271L22.5781 350.046L20.4401 350.445Z" fill="#CC8B09"/>
    <path d="M29.2754 350.383L28.5627 349.701L26.0561 351.434L26.2158 351.944C26.2158 351.944 28.0589 351.157 28.145 351.108L29.2754 350.383Z" fill="#CC8B09"/>
    <path d="M35.8428 346.715L32.519 348.601L31.837 348.11C31.837 348.11 32.2548 347.631 32.2855 347.582C32.5867 347.243 32.9366 346.951 33.3238 346.715C33.5696 346.672 35.167 345.966 35.167 345.966L35.8428 346.715Z" fill="#CC8B09"/>
    <path d="M30.3135 345.518V344.357L31.8372 343.859L32.1689 344.769L32.0891 345.186L30.3135 345.518Z" fill="#CC8B09"/>
    <path d="M40.4629 344.676V343.515L38.6874 343.705L39.2649 344.829L40.4629 344.676Z" fill="#CC8B09"/>
    <path d="M40.3955 348.626V347.397H38.368L38.8596 348.479L39.7197 349.462L40.3955 348.626Z" fill="#CC8B09"/>
    <path d="M30.3133 344.356C30.5767 344.352 30.84 344.373 31.0997 344.418C31.4499 344.467 31.8492 344.534 32.2854 344.627C32.7216 344.719 33.1824 344.842 33.6493 344.983C34.1111 345.121 34.5628 345.292 35.0009 345.493L31.5482 347.465L30.9338 347.25C30.0614 346.955 29.232 346.709 28.4763 346.507C27.7467 346.311 26.9998 346.188 26.2461 346.138C25.5571 346.092 24.8651 346.138 24.1879 346.273C23.4977 346.422 22.836 346.682 22.2281 347.041C21.6282 347.342 21.1161 347.793 20.7413 348.35C20.6173 348.548 20.5339 348.769 20.4959 349C20.4579 349.231 20.4662 349.467 20.5201 349.695C20.6682 350.201 20.9481 350.659 21.3311 351.022C21.8048 351.493 22.3328 351.905 22.9039 352.251L20.7106 353.516L21.9025 354.223L24.1142 352.945C25.1698 353.46 26.2726 353.871 27.4073 354.174C28.5947 354.499 29.8071 354.725 31.0321 354.85L32.1932 352.779C31.8686 352.771 31.5446 352.747 31.2225 352.705C30.7373 352.646 30.2554 352.562 29.7788 352.454C29.2443 352.343 28.6852 352.196 28.0954 352.024C27.5176 351.861 26.9528 351.656 26.4058 351.409L29.8402 349.431L30.2887 349.584L30.7556 349.726C31.5341 349.989 32.3257 350.213 33.1271 350.395C33.7929 350.549 34.4717 350.64 35.1545 350.666C35.7531 350.687 36.3519 350.631 36.9362 350.5C37.5174 350.36 38.0745 350.135 38.5889 349.83C39.1567 349.537 39.6488 349.117 40.0265 348.601C40.3065 348.216 40.4434 347.744 40.4136 347.268C40.3646 346.775 40.1675 346.308 39.8483 345.929C39.4513 345.438 38.9809 345.011 38.4537 344.663L40.4873 343.49L39.2893 342.796L37.2741 343.963C36.3305 343.49 35.3374 343.123 34.3128 342.869C33.3384 342.627 32.3492 342.448 31.3516 342.335L30.3133 344.356ZM36.1744 347.969C35.7222 348.228 35.2002 348.34 34.6815 348.288C33.9804 348.212 33.29 348.057 32.6233 347.827L35.8549 345.984C37.0386 346.746 37.1451 347.408 36.1744 347.969ZM24.8453 348.915C25.3383 348.646 25.9055 348.544 26.4611 348.626C27.2255 348.724 27.9799 348.889 28.7159 349.118L25.5088 350.961C24.1367 350.133 23.9156 349.451 24.8453 348.915Z" fill="#F9CA06"/>
    <path fill-rule="evenodd" clip-rule="evenodd" d="M30.0001 364.066C13.4316 364.066 0.000175476 356.312 0.000175476 346.747C0.000175476 346.747 0.000175476 346.746 0.000175476 346.746L2.28882e-05 346.746V339.318L2.12686 340.33C6.54359 333.942 17.3587 329.428 30.0001 329.428C42.9173 329.428 53.9277 334.141 58.1533 340.75L59.9873 339.116V346.238C59.9957 346.407 60 346.577 60 346.747C60 356.312 46.5686 364.066 30.0001 364.066Z" fill="#9DECE6"/>
    <path d="M30.0001 356.638C13.4316 356.638 0.000175476 348.884 0.000175476 339.319C0.000175476 329.754 13.4316 322 30.0001 322C46.5686 322 60 329.754 60 339.319C60 348.884 46.5686 356.638 30.0001 356.638Z" fill="#D0FFFB"/>
    <path fill-rule="evenodd" clip-rule="evenodd" d="M71.9662 323.854C55.3849 323.854 41.9431 316.094 41.9431 306.522C41.9431 306.504 41.9432 306.487 41.9433 306.47V299.095L44.0686 300.104C48.4869 293.709 59.3124 289.189 71.9662 289.189C84.8977 289.189 95.9196 293.909 100.145 300.528L101.983 298.892V306.169C101.987 306.286 101.989 306.404 101.989 306.522C101.989 316.094 88.5475 323.854 71.9662 323.854Z" fill="#9DECE6"/>
    <path d="M71.9662 316.427C55.3849 316.427 41.9431 308.667 41.9431 299.095C41.9431 289.523 55.3849 281.763 71.9662 281.763C88.5475 281.763 101.989 289.523 101.989 299.095C101.989 308.667 88.5475 316.427 71.9662 316.427Z" fill="#D0FFFB"/>
    <path d="M50.5077 299.636C50.8151 302.55 52.8933 305.427 56.7668 307.665C65.1595 312.51 78.7723 312.51 87.165 307.665C91.0324 305.427 93.1167 302.55 93.4118 299.636C93.7746 296.217 91.6902 292.725 87.165 290.118C78.7723 285.267 65.1595 285.267 56.7668 290.118C52.2415 292.725 50.1511 296.217 50.5077 299.636Z" fill="#CC8B09"/>
    <path d="M50.508 299.636C50.8154 302.551 52.8936 305.428 56.7671 307.666C65.1598 312.511 78.7726 312.511 87.1652 307.666C91.0326 305.428 93.117 302.551 93.4121 299.636C93.117 296.716 91.0326 293.838 87.1652 291.6C78.7726 286.749 65.1598 286.749 56.7671 291.6C52.8936 293.838 50.8154 296.716 50.508 299.636Z" fill="#E8A30A"/>
    <path d="M72.2802 295.572C72.5438 295.571 72.8069 295.592 73.0672 295.633C73.4238 295.689 73.8173 295.756 74.2539 295.849C74.6904 295.941 75.1515 296.058 75.625 296.199C76.0866 296.336 76.5368 296.509 76.9715 296.716L73.5161 298.708L72.9012 298.486C72.022 298.197 71.1919 297.945 70.4418 297.742C69.7095 297.547 68.96 297.424 68.2038 297.373C67.516 297.33 66.8254 297.377 66.1502 297.515C65.4577 297.662 64.7934 297.919 64.1826 298.277C63.5835 298.58 63.0714 299.031 62.6947 299.587C62.57 299.785 62.4867 300.007 62.4497 300.238C62.4127 300.47 62.4229 300.706 62.4795 300.933C62.625 301.442 62.903 301.902 63.285 302.268C63.7612 302.739 64.2916 303.151 64.8651 303.497L62.6701 304.764L63.8629 305.459L66.0764 304.18C67.1332 304.694 68.2368 305.105 69.372 305.409C70.5616 305.74 71.7773 305.968 73.0057 306.092L74.137 304.044C73.8142 304.037 73.492 304.012 73.1717 303.971C72.6842 303.914 72.1998 303.832 71.7207 303.725C71.1919 303.608 70.6263 303.467 70.036 303.294C69.4598 303.132 68.8966 302.927 68.3513 302.68L71.7822 300.694L72.231 300.853L72.6983 300.995C73.5652 301.278 74.3584 301.499 75.0778 301.665C75.7419 301.819 76.4193 301.91 77.1006 301.936C77.6996 301.957 78.299 301.902 78.8837 301.77C79.4661 301.626 80.025 301.4 80.5438 301.099C81.1095 300.803 81.6012 300.382 81.9825 299.87C82.2573 299.483 82.3937 299.015 82.3699 298.542C82.319 298.047 82.1197 297.58 81.7981 297.201C81.4026 296.706 80.9316 296.277 80.4024 295.929L82.4375 294.754L81.2385 294.066L79.228 295.228C78.2815 294.761 77.2881 294.396 76.2644 294.139C75.2903 293.892 74.3 293.713 73.3008 293.604L72.2802 295.572ZM78.1459 299.193C77.6928 299.452 77.1709 299.563 76.6518 299.513C75.9532 299.431 75.265 299.276 74.5982 299.052L77.8261 297.207C79.0128 297.964 79.1173 298.628 78.1459 299.193ZM66.8142 300.134C67.3081 299.866 67.8752 299.765 68.4313 299.845C69.1843 299.952 69.9269 300.122 70.6509 300.355L67.4413 302.2C66.101 301.358 65.8796 300.675 66.8142 300.134Z" fill="#CC8B09"/>
    <path d="M74.1367 304.044C74.1367 303.964 74.1367 302.882 74.1367 302.882L72.8209 303.73L73.3927 304.61L74.1367 304.044Z" fill="#CC8B09"/>
    <path d="M62.639 304.776V303.614L65.498 303.829L63.8564 304.948L62.639 304.776Z" fill="#CC8B09"/>
    <path d="M62.3994 300.502V299.328L64.5391 300.103L62.3994 300.502Z" fill="#CC8B09"/>
    <path d="M71.2656 300.441L70.5586 299.759L68.05 301.493L68.2037 302.003C68.2037 302.003 70.079 301.216 70.1405 301.173C70.2019 301.13 71.2656 300.441 71.2656 300.441Z" fill="#CC8B09"/>
    <path d="M77.8193 296.777L74.4869 298.658L73.8105 298.166C73.8105 298.166 74.2286 297.687 74.2594 297.644C74.5551 297.301 74.9038 297.009 75.2923 296.777C75.5444 296.728 77.1369 296.021 77.1369 296.021L77.8193 296.777Z" fill="#CC8B09"/>
    <path d="M72.2799 295.572V294.41L73.8108 293.912L74.1367 294.822L74.0568 295.24L72.2799 295.572Z" fill="#CC8B09"/>
    <path d="M82.4375 294.729V293.567L80.6667 293.758L81.2385 294.889L82.4375 294.729Z" fill="#CC8B09"/>
    <path d="M82.376 298.683V297.453H80.347L80.845 298.535L81.7181 299.525L82.376 298.683Z" fill="#CC8B09"/>
    <path d="M72.2802 294.41C72.5438 294.409 72.8069 294.43 73.0672 294.471C73.4238 294.521 73.8173 294.594 74.2539 294.687C74.6904 294.779 75.1515 294.896 75.625 295.037C76.0855 295.175 76.5355 295.345 76.9715 295.547L73.5161 297.539L72.9012 297.324C72.022 297.029 71.1919 296.783 70.4418 296.58C69.7095 296.385 68.96 296.261 68.2038 296.211C67.5163 296.169 66.8261 296.214 66.1502 296.347C65.4575 296.496 64.7932 296.755 64.1826 297.115C63.5835 297.418 63.0714 297.869 62.6947 298.425C62.57 298.623 62.4867 298.845 62.4497 299.076C62.4127 299.307 62.4229 299.544 62.4795 299.771C62.6252 300.278 62.9032 300.736 63.285 301.099C63.7597 301.572 64.2903 301.985 64.8651 302.329L62.6578 303.614L63.8506 304.303L66.0641 303.024C67.1198 303.54 68.2236 303.952 69.3597 304.253C70.5495 304.582 71.7652 304.808 72.9934 304.93L74.1493 302.858C73.8265 302.85 73.5043 302.825 73.184 302.784C72.7475 302.735 72.2679 302.649 71.733 302.538C71.1981 302.427 70.6386 302.274 70.0483 302.102C69.4721 301.939 68.9089 301.734 68.3636 301.487L71.7945 299.507L72.2433 299.661L72.7106 299.808C73.5755 300.091 74.3686 300.312 75.0901 300.472C75.7537 300.629 76.4313 300.72 77.1129 300.743C77.7119 300.765 78.3113 300.709 78.896 300.577C79.4801 300.439 80.0399 300.213 80.5561 299.907C81.1219 299.61 81.6136 299.19 81.9948 298.677C82.2696 298.29 82.406 297.822 82.3822 297.349C82.3303 296.853 82.1311 296.384 81.8104 296.002C81.413 295.511 80.9422 295.084 80.4147 294.736L82.4375 293.592L81.2385 292.897L79.228 294.066C78.2815 293.599 77.2881 293.234 76.2644 292.977C75.2903 292.73 74.3 292.551 73.3008 292.442L72.2802 294.41ZM78.1459 298.025C77.6951 298.29 77.1718 298.404 76.6518 298.351C75.9532 298.268 75.265 298.114 74.5982 297.89L77.8261 296.045C79.0107 296.804 79.1173 297.464 78.1459 298.025ZM66.8142 298.972C67.3071 298.701 67.8751 298.6 68.4313 298.683C69.1948 298.781 69.948 298.948 70.6816 299.181L67.4721 301.026C66.0989 300.193 65.8796 299.509 66.8142 298.972Z" fill="#F9CA06"/>
    <path fill-rule="evenodd" clip-rule="evenodd" d="M71.9662 314.134C55.3849 314.134 41.9431 306.374 41.9431 296.802C41.9431 296.785 41.9432 296.767 41.9433 296.75V289.374L44.0706 290.381C48.4902 283.988 59.3143 279.47 71.9662 279.47C84.8948 279.47 95.9148 284.187 100.143 290.803L101.983 289.165V296.449C101.987 296.566 101.989 296.684 101.989 296.802C101.989 306.374 88.5475 314.134 71.9662 314.134Z" fill="#9DECE6"/>
    <path d="M71.9662 306.707C55.3849 306.707 41.9431 298.947 41.9431 289.374C41.9431 279.802 55.3849 272.042 71.9662 272.042C88.5475 272.042 101.989 279.802 101.989 289.374C101.989 298.947 88.5475 306.707 71.9662 306.707Z" fill="#D0FFFB"/>
    <path d="M50.5077 289.903C50.8151 292.824 52.8933 295.695 56.7668 297.933C65.1595 302.778 78.7723 302.778 87.165 297.933C91.0324 295.695 93.1167 292.824 93.4118 289.903C93.7746 286.485 91.6902 282.992 87.165 280.385C78.7723 275.534 65.1595 275.534 56.7668 280.385C52.2415 282.998 50.1511 286.491 50.5077 289.903Z" fill="#CC8B09"/>
    <path d="M50.508 289.903C50.8154 292.824 52.8936 295.695 56.7671 297.933C65.1598 302.778 78.7726 302.778 87.1652 297.933C91.0326 295.695 93.117 292.824 93.4121 289.903C93.117 286.983 91.0326 284.112 87.1652 281.874C78.7726 277.023 65.1598 277.023 56.7671 281.874C52.8936 284.118 50.8154 286.989 50.508 289.903Z" fill="#E8A30A"/>
    <path d="M72.2802 285.845C72.5439 285.847 72.807 285.869 73.0672 285.912C73.4238 285.962 73.8173 286.029 74.2539 286.121C74.6904 286.214 75.1515 286.337 75.625 286.478C76.0864 286.613 76.5366 286.783 76.9715 286.988L73.516 288.98L72.9012 288.765C72.022 288.47 71.1919 288.224 70.4418 288.021C69.7095 287.826 68.96 287.703 68.2038 287.652C67.5163 287.607 66.8257 287.652 66.1502 287.788C65.4574 287.937 64.7932 288.197 64.1826 288.556C63.5841 288.857 63.072 289.306 62.6947 289.86C62.5702 290.059 62.487 290.282 62.45 290.514C62.413 290.747 62.4231 290.984 62.4795 291.212C62.6252 291.719 62.9032 292.177 63.285 292.54C63.7613 293.011 64.2917 293.424 64.8651 293.77L62.6701 295.037L63.8629 295.725L66.0764 294.446C67.1332 294.96 68.2368 295.372 69.372 295.676C70.5625 296.001 71.7779 296.228 73.0057 296.352L74.1616 294.28C73.8388 294.273 73.5166 294.248 73.1963 294.207C72.7598 294.151 72.2802 294.071 71.7453 293.955C71.2104 293.838 70.6508 293.696 70.0606 293.524C69.4844 293.362 68.9212 293.156 68.3759 292.909L71.8068 290.93L72.2556 291.083L72.7229 291.225C73.5041 291.489 74.2983 291.712 75.1024 291.895C75.7665 292.049 76.4439 292.14 77.1252 292.165C77.7242 292.187 78.3236 292.131 78.9083 291.999C79.4915 291.859 80.0509 291.633 80.5684 291.329C81.1342 291.033 81.6259 290.612 82.0071 290.099C82.281 289.71 82.4173 289.241 82.3945 288.765C82.3436 288.271 82.1443 287.804 81.8227 287.425C81.4269 286.932 80.9559 286.505 80.4269 286.158L82.4375 284.984L81.2385 284.289L79.228 285.451C78.2815 284.985 77.2881 284.62 76.2644 284.363C75.2897 284.119 74.2996 283.94 73.3008 283.828L72.2802 285.845ZM78.1459 289.466C77.6944 289.729 77.1711 289.841 76.6518 289.786C75.9522 289.709 75.2633 289.555 74.5982 289.325L77.8261 287.48C79.0107 288.243 79.1173 288.905 78.1459 289.466ZM66.8142 290.413C67.3061 290.14 67.8751 290.038 68.4312 290.124C69.1942 290.223 69.9472 290.387 70.6816 290.616L67.4721 292.46C66.0989 291.632 65.8796 290.95 66.8142 290.413Z" fill="#CC8B09"/>
    <path d="M74.1367 294.318C74.1367 294.232 74.1367 293.149 74.1367 293.149L72.8209 293.998L73.3927 294.883L74.1367 294.318Z" fill="#CC8B09"/>
    <path d="M62.639 295.056V293.888L65.498 294.109L63.8564 295.228L62.639 295.056Z" fill="#CC8B09"/>
    <path d="M62.3994 290.782V289.602L64.5391 290.376L62.3994 290.782Z" fill="#CC8B09"/>
    <path d="M71.2656 290.721L70.5586 290.038L68.05 291.772L68.2037 292.282C68.2037 292.282 70.079 291.489 70.1405 291.446C70.2019 291.403 71.2656 290.721 71.2656 290.721Z" fill="#CC8B09"/>
    <path d="M77.8193 287.05L74.4869 288.938L73.8105 288.446C73.8105 288.446 74.2286 287.966 74.2594 287.917C74.5568 287.576 74.9052 287.284 75.2923 287.05C75.5444 287.001 77.1369 286.294 77.1369 286.294L77.8193 287.05Z" fill="#CC8B09"/>
    <path d="M72.2799 285.852V284.684L73.8108 284.186L74.1367 285.102L74.0568 285.52L72.2799 285.852Z" fill="#CC8B09"/>
    <path d="M82.4375 285.009V283.841L80.6667 284.031L81.2385 285.163L82.4375 285.009Z" fill="#CC8B09"/>
    <path d="M82.376 288.956V287.727H80.347L80.845 288.809L81.7181 289.799L82.376 288.956Z" fill="#CC8B09"/>
    <path d="M72.2796 284.683C72.5432 284.682 72.8064 284.703 73.0666 284.744C73.4232 284.8 73.8167 284.867 74.2533 284.959C74.6898 285.052 75.151 285.169 75.6244 285.31C76.086 285.447 76.5362 285.619 76.9709 285.826L73.5155 287.818L72.9006 287.597C72.0214 287.308 71.1913 287.056 70.4412 286.853C69.7089 286.658 68.9594 286.534 68.2032 286.484C67.5154 286.441 66.8249 286.488 66.1496 286.626C65.4571 286.773 64.7928 287.03 64.1821 287.388C63.5723 287.679 63.0474 288.122 62.6572 288.673C62.5326 288.871 62.4492 289.093 62.4122 289.324C62.3753 289.556 62.3854 289.792 62.442 290.02C62.5904 290.539 62.8774 291.009 63.2721 291.378C63.7467 291.851 64.2774 292.264 64.8523 292.608L62.6572 293.875L63.85 294.569L66.0635 293.291C67.1203 293.804 68.2239 294.216 69.3591 294.52C70.5488 294.851 71.7644 295.079 72.9928 295.203L74.1488 293.125C73.8259 293.117 73.5037 293.092 73.1834 293.051C72.6959 292.994 72.2116 292.912 71.7324 292.805C71.2036 292.688 70.638 292.547 70.0477 292.374C69.4715 292.212 68.9083 292.007 68.363 291.76L71.7939 289.774L72.2427 289.934L72.71 290.075C73.577 290.358 74.3701 290.579 75.0895 290.745C75.7536 290.899 76.431 290.99 77.1123 291.016C77.7114 291.037 78.3107 290.982 78.8954 290.85C79.4778 290.706 80.0368 290.481 80.5555 290.179C81.1212 289.883 81.6129 289.462 81.9942 288.95C82.269 288.563 82.4055 288.095 82.3816 287.622C82.3308 287.127 82.1314 286.66 81.8098 286.281C81.4143 285.786 80.9433 285.357 80.4141 285.009L82.4492 283.834L81.2503 283.146L79.2397 284.308C78.2932 283.841 77.2998 283.476 76.2761 283.219C75.302 282.972 74.3117 282.793 73.3126 282.685L72.2796 284.683ZM78.1453 288.304C77.6922 288.562 77.1703 288.674 76.6512 288.624C75.9521 288.544 75.2636 288.39 74.5976 288.163L77.8256 286.318C79.0122 287.075 79.1167 287.739 78.1453 288.304ZM66.8136 289.245C67.3076 288.977 67.8746 288.876 68.4307 288.956C69.1937 289.057 69.9466 289.223 70.681 289.454L67.4715 291.298C66.1004 290.468 65.879 289.786 66.8136 289.245Z" fill="#F9CA06"/>
    <path fill-rule="evenodd" clip-rule="evenodd" d="M70.0228 303.11C53.4415 303.11 39.9998 295.35 39.9998 285.778C39.9998 285.748 39.9999 285.718 40.0001 285.688V278.35L42.1258 279.359C46.5445 272.964 57.3695 268.445 70.0228 268.445C82.9508 268.445 93.9703 273.162 98.1985 279.778L100.034 278.141V285.284C100.042 285.448 100.046 285.612 100.046 285.778C100.046 295.35 86.6041 303.11 70.0228 303.11Z" fill="#9DECE6"/>
    <path d="M70.0228 295.682C53.4415 295.682 39.9998 287.922 39.9998 278.35C39.9998 268.778 53.4415 261.018 70.0228 261.018C86.6041 261.018 100.046 268.778 100.046 278.35C100.046 287.922 86.6041 295.682 70.0228 295.682Z" fill="#D0FFFB"/>
    <path d="M48.5644 278.885C48.8718 281.806 50.95 284.683 54.8174 286.921C63.2162 291.76 76.8228 291.76 85.2217 286.921C89.0891 284.683 91.1673 281.806 91.4685 278.885C91.8313 275.473 89.7408 271.981 85.2217 269.374C76.8228 264.523 63.2162 264.523 54.8174 269.374C50.2983 271.981 48.2078 275.473 48.5644 278.885Z" fill="#CC8B09"/>
    <path d="M48.5646 278.885C48.872 281.805 50.9502 284.683 54.8176 286.921C63.2164 291.76 76.823 291.76 85.2219 286.921C89.0893 284.683 91.1675 281.805 91.4688 278.885C91.1675 275.971 89.0893 273.093 85.2219 270.855C76.823 266.004 63.2164 266.004 54.8176 270.855C50.9748 273.093 48.872 275.971 48.5646 278.885Z" fill="#E8A30A"/>
    <path d="M70.3362 274.827C70.5997 274.826 70.8629 274.847 71.1232 274.889C71.4736 274.938 71.8733 275.011 72.3098 275.104C72.7464 275.196 73.2075 275.313 73.6748 275.454C74.137 275.593 74.5889 275.763 75.0275 275.964L71.572 277.963L70.9572 277.741C70.0841 277.452 69.254 277.2 68.4978 276.997C67.7676 276.802 67.0201 276.678 66.2659 276.629C65.5761 276.585 64.8835 276.633 64.2061 276.77C63.5157 276.917 62.8534 277.175 62.2448 277.532C61.6456 277.835 61.1336 278.286 60.7568 278.842C60.6327 279.041 60.5492 279.262 60.5112 279.493C60.4733 279.724 60.4815 279.961 60.5355 280.188C60.6867 280.696 60.9662 281.155 61.3471 281.523C61.8223 281.992 62.3505 282.405 62.9211 282.752L60.7261 284.019L61.925 284.714L64.1385 283.435C65.1953 283.949 66.2989 284.36 67.4341 284.664C68.6215 284.995 69.8352 285.224 71.0617 285.347L72.2237 283.269C71.8989 283.261 71.5746 283.236 71.2523 283.195C70.7668 283.137 70.2846 283.055 69.8074 282.949C69.2725 282.832 68.713 282.691 68.1227 282.519C67.5454 282.354 66.9804 282.148 66.4319 281.904L69.8689 279.924L70.3177 280.078L70.785 280.225C71.6519 280.508 72.4389 280.729 73.1583 280.889C73.8245 281.045 74.5038 281.138 75.1873 281.166C75.7867 281.188 76.3863 281.13 76.9704 280.994C77.5534 280.855 78.1128 280.632 78.6305 280.33C79.1943 280.033 79.684 279.612 80.0631 279.1C80.3433 278.716 80.4803 278.246 80.4504 277.772C80.3999 277.277 80.203 276.808 79.8848 276.426C79.479 275.927 78.9977 275.496 78.4583 275.147L80.4873 273.985L79.2884 273.296L77.2717 274.458C76.326 273.989 75.3323 273.625 74.3081 273.37C73.3342 273.121 72.3438 272.943 71.3445 272.835L70.3362 274.827ZM76.1834 278.442C75.7317 278.705 75.2091 278.819 74.6893 278.768C73.9887 278.686 73.2984 278.531 72.6295 278.307L75.8636 276.463C77.0605 277.225 77.1671 277.885 76.1834 278.442ZM64.8456 279.389C65.3399 279.123 65.9066 279.021 66.4626 279.1C67.2282 279.198 67.9835 279.365 68.7191 279.598L65.5096 281.443C64.1487 280.611 63.9335 279.926 64.864 279.389H64.8456Z" fill="#CC8B09"/>
    <path d="M72.1934 283.294C72.1565 283.208 72.1934 282.132 72.1934 282.132L70.8714 282.98L71.4432 283.86L72.1934 283.294Z" fill="#CC8B09"/>
    <path d="M60.6956 284.031V282.869L63.5547 283.084L61.913 284.203L60.6956 284.031Z" fill="#CC8B09"/>
    <path d="M60.456 279.758V278.584L62.5957 279.359L60.456 279.758Z" fill="#CC8B09"/>
    <path d="M69.3096 279.697L68.5963 279.015L66.0878 280.749L66.2476 281.259C66.2476 281.259 68.0922 280.472 68.1782 280.423L69.3096 279.697Z" fill="#CC8B09"/>
    <path d="M75.8701 276.025L72.5438 277.913L71.8613 277.421C71.8613 277.421 72.2794 276.942 72.3101 276.892C72.6115 276.553 72.9618 276.261 73.3492 276.025C73.5952 275.982 75.1938 275.275 75.1938 275.275L75.8701 276.025Z" fill="#CC8B09"/>
    <path d="M70.3365 274.827V273.665L71.8613 273.167L72.1934 274.077L72.1134 274.495L70.3365 274.827Z" fill="#CC8B09"/>
    <path d="M80.4941 273.985V272.823L78.7172 273.014L79.2952 274.139L80.4941 273.985Z" fill="#CC8B09"/>
    <path d="M80.4258 277.939V276.709H78.3968L78.8887 277.791L79.774 278.763L80.4258 277.939Z" fill="#CC8B09"/>
    <path d="M70.3362 273.665C70.5998 273.661 70.8633 273.682 71.1232 273.727C71.4736 273.776 71.8733 273.85 72.3098 273.942C72.7464 274.034 73.2075 274.151 73.6748 274.292C74.137 274.431 74.5889 274.601 75.0275 274.803L71.572 276.795L70.9572 276.58C70.0841 276.284 69.254 276.039 68.4978 275.836C67.7676 275.64 67.0201 275.516 66.2659 275.467C65.5763 275.421 64.8838 275.467 64.2061 275.602C63.5154 275.751 62.8532 276.011 62.2448 276.371C61.6456 276.674 61.1336 277.124 60.7568 277.68C60.6327 277.879 60.5492 278.1 60.5112 278.331C60.4733 278.562 60.4815 278.799 60.5355 279.027C60.6861 279.532 60.9658 279.99 61.3471 280.355C61.8209 280.826 62.3493 281.239 62.9211 281.584L60.7261 282.851L61.925 283.54L64.1385 282.261C65.1953 282.775 66.2989 283.186 67.4341 283.49C68.6224 283.816 69.8358 284.042 71.0617 284.167L72.2237 282.095C71.8989 282.087 71.5746 282.062 71.2523 282.021C70.8219 281.972 70.3423 281.886 69.8074 281.769C69.2725 281.652 68.713 281.511 68.1227 281.338C67.5445 281.176 66.9793 280.971 66.4319 280.724L69.8689 278.744L70.3177 278.898L70.785 279.039C71.5641 279.303 72.3563 279.526 73.1583 279.709C73.8246 279.863 74.504 279.954 75.1873 279.98C75.7863 280.001 76.3856 279.945 76.9704 279.814C77.5545 279.676 78.1143 279.45 78.6305 279.143C79.1959 278.849 79.686 278.428 80.0631 277.914C80.3442 277.528 80.4813 277.056 80.4504 276.58C80.4013 276.086 80.2042 275.619 79.8848 275.239C79.4874 274.748 79.0166 274.321 78.489 273.973L80.4873 272.823L79.2884 272.128L77.2717 273.296C76.3283 272.822 75.334 272.457 74.3081 272.208C73.3337 271.961 72.3435 271.78 71.3445 271.667L70.3362 273.665ZM76.1834 277.28C75.7319 277.543 75.2086 277.655 74.6893 277.6C73.9877 277.524 73.2968 277.369 72.6295 277.139L75.8636 275.295C77.0605 276.057 77.1671 276.719 76.1834 277.28ZM64.864 278.221C65.3574 277.952 65.925 277.85 66.4811 277.932C67.2461 278.031 68.001 278.195 68.7376 278.424L65.5281 280.269C64.1549 279.445 63.9335 278.762 64.864 278.221Z" fill="#F9CA06"/>
    <path fill-rule="evenodd" clip-rule="evenodd" d="M70.6693 292.092C54.088 292.092 40.6462 284.332 40.6462 274.76C40.6462 274.731 40.6464 274.701 40.6466 274.672V267.332L42.7738 268.339C47.1934 261.946 58.0175 257.428 70.6693 257.428C83.5979 257.428 94.6179 262.145 98.8457 268.761L100.686 267.123V274.407C100.69 274.524 100.692 274.642 100.692 274.76C100.692 284.332 87.2506 292.092 70.6693 292.092Z" fill="#9DECE6"/>
    <path d="M70.6693 284.665C54.088 284.665 40.6462 276.905 40.6462 267.332C40.6462 257.76 54.088 250 70.6693 250C87.2506 250 100.692 257.76 100.692 267.332C100.692 276.905 87.2506 284.665 70.6693 284.665Z" fill="#D0FFFB"/>
    <defs>
        <linearGradient id="paint0_linear" x1="192.708" y1="223.669" x2="249.705" y2="332.117" gradientUnits="userSpaceOnUse">
            <stop stop-color="#3874A4"/>
            <stop offset="1" stop-color="#64DAEC"/>
        </linearGradient>
        <linearGradient id="paint1_linear" x1="231.341" y1="288.856" x2="252.202" y2="314.02" gradientUnits="userSpaceOnUse">
            <stop stop-color="#3874A4"/>
            <stop offset="1" stop-color="#64DAEC"/>
        </linearGradient>
        <linearGradient id="paint2_linear" x1="232.705" y1="285.018" x2="240.762" y2="296.51" gradientUnits="userSpaceOnUse">
            <stop stop-color="#3874A4"/>
            <stop offset="1" stop-color="#64DAEC"/>
        </linearGradient>
        <linearGradient id="paint3_linear" x1="235.307" y1="285.988" x2="242.523" y2="299.517" gradientUnits="userSpaceOnUse">
            <stop stop-color="#3874A4"/>
            <stop offset="1" stop-color="#64DAEC"/>
        </linearGradient>
    </defs>
</svg>
