<svg width="144" height="134" viewBox="0 0 144 134" fill="none" xmlns="http://www.w3.org/2000/svg">
    <path d="M132.965 15.1776L112.959 3.15679C110.057 1.41334 106.292 2.35219 104.548 5.25377L79.7657 46.4989C78.0223 49.4005 78.9611 53.166 81.8627 54.9094L101.869 66.9302C104.77 68.6737 108.536 67.7348 110.279 64.8333L135.062 23.5881C136.805 20.6866 135.866 16.921 132.965 15.1776Z" fill="url(#paint0_linear)"/>
    <path d="M73.5165 60.3745C89.7576 60.3745 102.924 47.2053 102.924 30.9602C102.924 14.7151 89.7576 1.5459 73.5165 1.5459C57.2754 1.5459 44.1094 14.7151 44.1094 30.9602C44.1094 47.2053 57.2754 60.3745 73.5165 60.3745Z" fill="#5ED43E"/>
    <path d="M73.5165 60.3745C89.7576 60.3745 102.924 47.2053 102.924 30.9602C102.924 14.7151 89.7576 1.5459 73.5165 1.5459C57.2754 1.5459 44.1094 14.7151 44.1094 30.9602C44.1094 47.2053 57.2754 60.3745 73.5165 60.3745Z" fill="url(#paint1_linear)"/>
    <path d="M38.4307 24.7676H133.983C135.359 24.7677 136.717 25.0732 137.96 25.6622C139.202 26.2512 140.299 27.1089 141.17 28.1733C142.041 29.2378 142.664 30.4824 142.996 31.8172C143.327 33.1521 143.358 34.5438 143.085 35.892L135.96 71.1803C135.253 74.6828 133.356 77.8328 130.591 80.0957C127.825 82.3586 124.362 83.595 120.789 83.5952H52.0053C37.7988 44.3768 33.2739 24.7676 38.4317 24.7676H38.4307ZM69.2867 37.1516C67.9456 37.1516 66.6593 37.6844 65.711 38.6327C64.7626 39.5811 64.2298 40.8673 64.2298 42.2085V66.1532C64.2298 68.9462 66.4938 71.2102 69.2867 71.2102H71.5559C74.3488 71.2102 76.6118 68.9462 76.6118 66.1532V42.2085C76.6118 39.4156 74.3478 37.1516 71.5559 37.1516H69.2867ZM90.9551 37.1516C89.614 37.1516 88.3277 37.6844 87.3794 38.6327C86.431 39.5811 85.8982 40.8673 85.8982 42.2085V66.1532C85.8982 68.9462 88.1622 71.2102 90.9551 71.2102H93.2243C96.0172 71.2102 98.2802 68.9462 98.2802 66.1532V42.2085C98.2802 39.4156 96.0162 37.1516 93.2243 37.1516H90.9551ZM112.624 37.1516C111.282 37.1516 109.996 37.6844 109.048 38.6327C108.099 39.5811 107.567 40.8673 107.567 42.2085V66.1532C107.567 68.9462 109.831 71.2102 112.624 71.2102H114.893C117.686 71.2102 119.949 68.9462 119.949 66.1532V42.2085C119.949 39.4156 117.685 37.1516 114.893 37.1516H112.624Z" fill="url(#paint2_linear)"/>
    <path fill-rule="evenodd" clip-rule="evenodd" d="M0 9.28722C0 6.29544 2.42532 3.87012 5.4171 3.87012H20.1662C23.5024 3.8698 26.7509 4.94388 29.429 6.93331C32.1074 8.92289 34.0739 11.7222 35.0371 14.9166L57.3698 89.0145H130.783C133.775 89.0145 136.2 91.4398 136.2 94.4316C136.2 95.4529 135.918 96.4082 135.426 97.2235V119.202C135.426 120.911 134.041 122.297 132.331 122.297C130.621 122.297 129.235 120.911 129.235 119.202V99.8487H54.9439V119.202C54.9439 120.911 53.558 122.297 51.8484 122.297C50.1388 122.297 48.7529 120.911 48.7529 119.202V97.3066C48.5013 96.9047 48.2997 96.465 48.158 95.9948L24.6642 18.0444C24.3729 17.0788 23.7782 16.232 22.9685 15.6305C22.1587 15.0289 21.1766 14.7042 20.1678 14.7043H5.4171C2.42532 14.7043 0 12.279 0 9.28722Z" fill="url(#paint3_linear)"/>
    <path d="M44.1105 133.134C50.9488 133.134 56.4924 127.589 56.4924 120.749C56.4924 113.909 50.9488 108.364 44.1105 108.364C37.2721 108.364 31.7285 113.909 31.7285 120.749C31.7285 127.589 37.2721 133.134 44.1105 133.134Z" fill="#122E46"/>
    <path d="M44.11 125.394C46.6744 125.394 48.7533 123.315 48.7533 120.75C48.7533 118.185 46.6744 116.105 44.11 116.105C41.5456 116.105 39.4668 118.185 39.4668 120.75C39.4668 123.315 41.5456 125.394 44.11 125.394Z" fill="white"/>
    <path d="M124.593 133.134C131.431 133.134 136.975 127.589 136.975 120.749C136.975 113.909 131.431 108.364 124.593 108.364C117.755 108.364 112.211 113.909 112.211 120.749C112.211 127.589 117.755 133.134 124.593 133.134Z" fill="#122E46"/>
    <path d="M124.592 125.394C127.157 125.394 129.236 123.315 129.236 120.75C129.236 118.185 127.157 116.105 124.592 116.105C122.028 116.105 119.949 118.185 119.949 120.75C119.949 123.315 122.028 125.394 124.592 125.394Z" fill="white"/>
    <defs>
        <linearGradient id="paint0_linear" x1="91.1505" y1="25.2715" x2="123.571" y2="44.7518" gradientUnits="userSpaceOnUse">
            <stop stop-color="#8B78FA"/>
            <stop offset="1" stop-color="#E5B3F8"/>
        </linearGradient>
        <linearGradient id="paint1_linear" x1="42.1693" y1="30.9602" x2="104.659" y2="30.9602" gradientUnits="userSpaceOnUse">
            <stop stop-color="#DB5B99"/>
            <stop offset="1" stop-color="#FAAFA3"/>
        </linearGradient>
        <linearGradient id="paint2_linear" x1="40.4417" y1="35.7322" x2="79.9523" y2="136.165" gradientUnits="userSpaceOnUse">
            <stop stop-color="#3874A4"/>
            <stop offset="1" stop-color="#64DAEC"/>
        </linearGradient>
        <linearGradient id="paint3_linear" x1="5.18647" y1="25.9431" x2="71.8853" y2="146.823" gradientUnits="userSpaceOnUse">
            <stop stop-color="#64DAEC"/>
            <stop offset="1" stop-color="#3874A4"/>
        </linearGradient>
    </defs>
</svg>
