<svg width="177" height="104" viewBox="0 0 177 104" fill="none" xmlns="http://www.w3.org/2000/svg">
    <path d="M30.2154 0.0986328H146.388C152.572 0.0986328 157.585 5.07093 157.585 11.2047V90.0258H19.0176V11.2047C19.0176 5.07093 24.0309 0.0986328 30.2154 0.0986328Z" fill="url(#paint0_linear)"/>
    <path d="M30.2154 0.0986328H146.388C152.572 0.0986328 157.585 5.07093 157.585 11.2047V90.0258H19.0176V11.2047C19.0176 5.07093 24.0309 0.0986328 30.2154 0.0986328Z" fill="url(#paint1_radial)"/>
    <path d="M33.0127 4.24878H144.987C146.09 4.24864 147.182 4.464 148.201 4.88256C149.22 5.30112 150.146 5.91469 150.926 6.68822C151.706 7.46174 152.325 8.38008 152.747 9.39077C153.169 10.4015 153.386 11.4847 153.386 12.5786V88.6409H24.6152V12.5786C24.6151 11.4847 24.8322 10.4015 25.2542 9.39077C25.6763 8.38008 26.2949 7.46174 27.0748 6.68822C27.8547 5.91469 28.7806 5.30112 29.7997 4.88256C30.8187 4.464 31.9109 4.24864 33.0138 4.24878H33.0127Z" fill="url(#paint2_linear)"/>
    <g filter="url(#filter0_i)">
        <path d="M33.0127 4.24878H144.987C146.09 4.24864 147.182 4.464 148.201 4.88256C149.22 5.30112 150.146 5.91469 150.926 6.68822C151.706 7.46174 152.325 8.38008 152.747 9.39077C153.169 10.4015 153.386 11.4847 153.386 12.5786V88.6409H24.6152V12.5786C24.6151 11.4847 24.8322 10.4015 25.2542 9.39077C25.6763 8.38008 26.2949 7.46174 27.0748 6.68822C27.8547 5.91469 28.7806 5.30112 29.7997 4.88256C30.8187 4.464 31.9109 4.24864 33.0138 4.24878H33.0127Z" fill="#122E46"/>
    </g>
    <path d="M89.0011 9.49455C89.7741 9.49455 90.4007 8.87502 90.4007 8.1108C90.4007 7.34658 89.7741 6.72705 89.0011 6.72705C88.2282 6.72705 87.6016 7.34658 87.6016 8.1108C87.6016 8.87502 88.2282 9.49455 89.0011 9.49455Z" fill="#DFE0EA"/>
    <mask id="mask0" mask-type="alpha" maskUnits="userSpaceOnUse" x="31" y="11" width="116" height="73">
        <path d="M33.421 11.1665H144.582C145.58 11.1665 146.388 11.9679 146.388 12.9575V81.3172C146.388 82.3069 145.58 83.1082 144.582 83.1082H33.421C32.9421 83.1082 32.4828 82.9195 32.1441 82.5837C31.8055 82.2478 31.6152 81.7922 31.6152 81.3172V12.9575C31.6152 11.9679 32.4243 11.1665 33.421 11.1665Z" fill="white"/>
    </mask>
    <g mask="url(#mask0)">
        <path d="M33.421 11.1665H144.582C145.58 11.1665 146.388 11.9679 146.388 12.9575V81.3172C146.388 82.3069 145.58 83.1082 144.582 83.1082H33.421C32.9421 83.1082 32.4828 82.9195 32.1441 82.5837C31.8055 82.2478 31.6152 81.7922 31.6152 81.3172V12.9575C31.6152 11.9679 32.4243 11.1665 33.421 11.1665Z" fill="white"/>
        <path fill-rule="evenodd" clip-rule="evenodd" d="M26.0167 11.1665H150.588V26.3844H26.0156L26.0167 11.1665Z" fill="#DFE0EA"/>
        <path d="M39.3123 20.8517C40.4717 20.8517 41.4116 19.9224 41.4116 18.7761C41.4116 17.6297 40.4717 16.7004 39.3123 16.7004C38.1528 16.7004 37.2129 17.6297 37.2129 18.7761C37.2129 19.9224 38.1528 20.8517 39.3123 20.8517Z" fill="#3874A4"/>
        <path d="M46.3123 20.8517C47.4717 20.8517 48.4116 19.9224 48.4116 18.7761C48.4116 17.6297 47.4717 16.7004 46.3123 16.7004C45.1528 16.7004 44.2129 17.6297 44.2129 18.7761C44.2129 19.9224 45.1528 20.8517 46.3123 20.8517Z" fill="#64DAEC"/>
        <path d="M53.3103 20.8517C54.4698 20.8517 55.4097 19.9224 55.4097 18.7761C55.4097 17.6297 54.4698 16.7004 53.3103 16.7004C52.1509 16.7004 51.2109 17.6297 51.2109 18.7761C51.2109 19.9224 52.1509 20.8517 53.3103 20.8517Z" fill="#3C7CA9"/>
    </g>
    <mask id="mask1" mask-type="alpha" maskUnits="userSpaceOnUse" x="42" y="31" width="45" height="46">
        <path d="M42.8125 31.9182H86.2018V76.1894H42.8125V31.9182Z" fill="white"/>
    </mask>
    <g mask="url(#mask1)">
        <path fill-rule="evenodd" clip-rule="evenodd" d="M79.2036 37.4521H70.8061C70.444 41.1775 67.4131 44.1957 63.8081 44.3698H62.4075C58.8036 44.1968 55.7705 41.1775 55.4095 37.4521H47.0109C46.3983 37.4521 45.6113 38.236 45.6113 38.8359V48.5199C45.6113 50.1577 46.3983 50.9415 47.0109 51.2874H48.4105C49.3399 50.9415 50.1269 51.7253 49.8101 52.6701V72.0404C50.1269 72.6403 50.9139 73.4241 51.2097 73.4241H75.0048C75.3017 73.4241 76.0887 72.6403 76.4044 72.0404V52.6701C76.0887 51.7242 76.8746 50.9404 77.804 51.2874H79.2036C79.8162 50.9415 80.6032 50.1577 80.6032 48.5199V38.837C80.6032 38.2371 79.8162 37.4532 79.2036 37.4532" fill="url(#paint3_linear)"/>
    </g>
    <path d="M97.4004 56.1296H122.595M97.4004 36.7615H122.595H97.4004ZM97.4004 46.4455H114.198H97.4004Z" stroke="#DFE0EA" stroke-width="3.804" stroke-linecap="round" stroke-linejoin="round"/>
    <path fill-rule="evenodd" clip-rule="evenodd" d="M121.438 76.1906H99.959C97.7735 76.1906 96.002 74.4763 96.002 72.3612V68.9522C96.002 66.8361 97.7735 65.1228 99.959 65.1228H121.441C123.626 65.1228 125.395 66.8361 125.395 68.9522V72.3612C125.395 74.4763 123.625 76.1906 121.441 76.1906" fill="#5ECDE3"/>
    <path d="M105.797 70.6565H115.595" stroke="white" stroke-width="2.536" stroke-linecap="round" stroke-linejoin="round"/>
    <mask id="mask2" mask-type="alpha" maskUnits="userSpaceOnUse" x="0" y="90" width="176" height="14">
        <path d="M3.62144 90.0259H172.982C174.528 90.0259 175.781 91.2684 175.781 92.8021V98.3087C175.781 99.0379 175.637 99.76 175.355 100.434C175.074 101.107 174.661 101.72 174.141 102.235C173.621 102.751 173.004 103.16 172.325 103.439C171.645 103.718 170.917 103.861 170.182 103.861H6.42061C5.68533 103.861 4.95725 103.718 4.27796 103.438C3.59866 103.159 2.98146 102.75 2.46159 102.234C1.94172 101.719 1.52938 101.107 1.2481 100.433C0.966819 99.759 0.822121 99.0368 0.822266 98.3076V92.8021C0.822266 91.2695 2.07505 90.0259 3.62144 90.0259Z" fill="white"/>
    </mask>
    <g mask="url(#mask2)">
        <path fill-rule="evenodd" clip-rule="evenodd" d="M175.781 81.7246H0.822266V92.8022V98.3077C0.822266 98.3084 0.822266 98.3091 0.822266 98.3098V99.7111H1.00377C1.06833 99.9564 1.14989 100.198 1.2481 100.433C1.52938 101.107 1.94172 101.719 2.46159 102.235C2.98146 102.75 3.59866 103.159 4.27796 103.438C4.95725 103.718 5.68533 103.861 6.42061 103.861H170.182C170.917 103.861 171.645 103.718 172.325 103.439C173.004 103.16 173.621 102.751 174.141 102.235C174.661 101.72 175.074 101.108 175.355 100.434C175.454 100.198 175.535 99.9568 175.6 99.7111H175.781V98.3087V92.8022V81.7246Z" fill="url(#paint4_linear)"/>
        <path fill-rule="evenodd" clip-rule="evenodd" d="M72.2051 90.0259H105.797V92.9532C105.797 93.6589 105.657 94.3578 105.385 95.0098C105.113 95.6618 104.713 96.2542 104.21 96.7532C103.707 97.2523 103.11 97.6481 102.452 97.9182C101.795 98.1883 101.09 98.3273 100.379 98.3273H77.6235C76.912 98.3273 76.2074 98.1883 75.55 97.9182C74.8926 97.6481 74.2952 97.2523 73.7921 96.7532C73.289 96.2542 72.8898 95.6618 72.6175 95.0098C72.3452 94.3578 72.2051 93.6589 72.2051 92.9532V90.0259Z" fill="#255C8C"/>
        <path fill-rule="evenodd" clip-rule="evenodd" d="M72.2051 90.0259H105.797V91.5695C105.797 92.9947 105.226 94.3617 104.21 95.3695C103.194 96.3773 101.816 96.9435 100.379 96.9435H77.6235C76.1865 96.9435 74.8083 96.3773 73.7921 95.3695C72.7759 94.3617 72.2051 92.9947 72.2051 91.5695V90.0259Z" fill="#5ECDE3"/>
    </g>
    <defs>
        <filter id="filter0_i" x="20.6152" y="4.24878" width="132.771" height="84.3922" filterUnits="userSpaceOnUse" color-interpolation-filters="sRGB">
            <feFlood flood-opacity="0" result="BackgroundImageFix"/>
            <feBlend mode="normal" in="SourceGraphic" in2="BackgroundImageFix" result="shape"/>
            <feColorMatrix in="SourceAlpha" type="matrix" values="0 0 0 0 0 0 0 0 0 0 0 0 0 0 0 0 0 0 127 0" result="hardAlpha"/>
            <feOffset dx="-4"/>
            <feGaussianBlur stdDeviation="6"/>
            <feComposite in2="hardAlpha" operator="arithmetic" k2="-1" k3="1"/>
            <feColorMatrix type="matrix" values="0 0 0 0 0.923124 0 0 0 0 0.346015 0 0 0 0 0 0 0 0 0.3 0"/>
            <feBlend mode="normal" in2="shape" result="effect1_innerShadow"/>
        </filter>
        <linearGradient id="paint0_linear" x1="85.4927" y1="-5.59735" x2="80.4726" y2="77.3849" gradientUnits="userSpaceOnUse">
            <stop stop-color="#FF9700"/>
            <stop offset="1" stop-color="#F65E00"/>
        </linearGradient>
        <radialGradient id="paint1_radial" cx="0" cy="0" r="1" gradientUnits="userSpaceOnUse" gradientTransform="translate(28.1458 31.2003) rotate(143.634) scale(226.17 140.936)">
            <stop offset="0.653763" stop-color="#3874A4"/>
            <stop offset="1" stop-color="#64DAEC"/>
        </radialGradient>
        <linearGradient id="paint2_linear" x1="89.0006" y1="-9.29869" x2="89.0006" y2="86.094" gradientUnits="userSpaceOnUse">
            <stop stop-color="#FF7700"/>
            <stop offset="1" stop-color="#F65800"/>
        </linearGradient>
        <linearGradient id="paint3_linear" x1="44.4571" y1="55.4381" x2="81.6359" y2="55.4381" gradientUnits="userSpaceOnUse">
            <stop stop-color="#DB5B99"/>
            <stop offset="1" stop-color="#FAAFA3"/>
        </linearGradient>
        <linearGradient id="paint4_linear" x1="102.651" y1="101.811" x2="101.657" y2="82.8543" gradientUnits="userSpaceOnUse">
            <stop stop-color="#3874A4"/>
            <stop offset="1" stop-color="#64DAEC"/>
        </linearGradient>
    </defs>
</svg>
