<svg width="218" height="36" viewBox="0 0 218 36" fill="none" xmlns="http://www.w3.org/2000/svg">
  <path d="M74.0947 32.1182C75.04 32.1182 75.5449 31.6348 75.8994 30.3887L76.4688 28.6377H81.3994L81.958 30.3887C82.3125 31.6025 82.8604 32.1182 83.8057 32.1182C84.8262 32.1182 85.4922 31.5166 85.4922 30.582C85.4922 30.2061 85.3955 29.7764 85.2021 29.1748L81.9688 19.668C81.3779 17.917 80.5615 17.2295 79.0146 17.2295C77.4678 17.2295 76.6299 17.9277 76.0498 19.668L72.8057 29.1748C72.5586 29.8945 72.4619 30.3027 72.4619 30.6572C72.4619 31.5166 73.1279 32.1182 74.0947 32.1182ZM77.1992 26.0703L78.8643 20.5166H79.0361L80.6797 26.0703H77.1992ZM89.1875 32.1074C90.3154 32.1074 90.9492 31.4199 90.9492 30.1953V19.1416C90.9492 17.9277 90.3047 17.2295 89.166 17.2295C88.0273 17.2295 87.3936 17.917 87.3936 19.1416V30.1953C87.3936 31.4092 88.0488 32.1074 89.1875 32.1074ZM93.4629 30.3135C93.4629 31.377 94.3438 32.2471 95.3965 32.2471C96.46 32.2471 97.3301 31.377 97.3301 30.3135C97.3301 29.25 96.46 28.3799 95.3965 28.3799C94.3438 28.3799 93.4629 29.25 93.4629 30.3135ZM113.239 32.1074C114.271 32.1074 114.861 31.4307 114.861 30.2598V19.5176C114.861 18.0566 114.099 17.2188 112.767 17.2188C111.66 17.2188 111.026 17.7129 110.382 19.0986L107.46 25.6621H107.342L104.42 19.1094C103.775 17.7236 103.131 17.2188 102.046 17.2188C100.735 17.2188 99.9189 18.0889 99.9189 19.5176V30.2598C99.9189 31.4629 100.456 32.1074 101.477 32.1074C102.508 32.1074 103.099 31.4307 103.099 30.2598V22.8799H103.271L105.752 28.4229C106.246 29.4863 106.676 29.8623 107.406 29.8623C108.126 29.8623 108.534 29.5078 109.039 28.4229L111.521 22.8799H111.692V30.2598C111.692 31.4629 112.229 32.1074 113.239 32.1074ZM118.374 32.1182C119.319 32.1182 119.824 31.6348 120.179 30.3887L120.748 28.6377H125.679L126.237 30.3887C126.592 31.6025 127.14 32.1182 128.085 32.1182C129.105 32.1182 129.771 31.5166 129.771 30.582C129.771 30.2061 129.675 29.7764 129.481 29.1748L126.248 19.668C125.657 17.917 124.841 17.2295 123.294 17.2295C121.747 17.2295 120.909 17.9277 120.329 19.668L117.085 29.1748C116.838 29.8945 116.741 30.3027 116.741 30.6572C116.741 31.5166 117.407 32.1182 118.374 32.1182ZM121.479 26.0703L123.144 20.5166H123.315L124.959 26.0703H121.479ZM135.186 24.2764V20.1514H137.495C138.913 20.1514 139.762 20.8926 139.762 22.2031C139.762 23.5352 138.902 24.2764 137.495 24.2764H135.186ZM135.186 30.1953V26.79H137.291L139.225 30.5605C139.805 31.6992 140.299 32.0859 141.233 32.0859C142.265 32.0859 142.995 31.3984 142.995 30.4209C142.995 30.0449 142.898 29.6367 142.705 29.3037L140.793 25.9199C142.383 25.1787 143.285 23.7285 143.285 21.8809C143.285 19.0664 141.266 17.3369 137.979 17.3369H134.101C132.414 17.3369 131.63 18.1641 131.63 19.9043V30.1953C131.63 31.4092 132.285 32.1074 133.435 32.1074C134.562 32.1074 135.186 31.4199 135.186 30.1953ZM155.768 32.0859C156.777 32.0859 157.476 31.3984 157.476 30.4102C157.476 29.916 157.314 29.5508 156.745 28.7881L153.071 23.8252L156.52 20.0977C156.992 19.582 157.164 19.249 157.164 18.8086C157.164 17.9385 156.487 17.251 155.606 17.251C155.102 17.251 154.693 17.4766 154.21 18.0029L149.279 23.3633H149.086V19.1416C149.086 17.9277 148.441 17.2295 147.303 17.2295C146.164 17.2295 145.53 17.917 145.53 19.1416V30.1953C145.53 31.3984 146.196 32.1074 147.346 32.1074C148.463 32.1074 149.086 31.4199 149.086 30.1953V27.4453L150.439 26.0703L154.006 30.9795C154.564 31.7529 155.102 32.0859 155.768 32.0859ZM159.538 29.9697C159.538 31.291 160.258 32 161.601 32H168.196C169.066 32 169.646 31.4521 169.646 30.5928C169.646 29.7441 169.066 29.1855 168.207 29.1855H163.051V25.9199H167.992C168.755 25.9199 169.271 25.415 169.271 24.6309C169.271 23.8574 168.755 23.3203 167.992 23.3203H163.051V20.1514H168.25C169.066 20.1514 169.646 19.582 169.646 18.7549C169.646 17.917 169.066 17.3369 168.25 17.3369H161.601C160.258 17.3369 159.538 18.0566 159.538 19.3672V29.9697ZM176.307 32.1074C177.413 32.1074 178.09 31.3984 178.09 30.2383V20.248H180.894C181.71 20.248 182.312 19.625 182.312 18.7979C182.312 17.96 181.71 17.3369 180.894 17.3369H171.752C170.936 17.3369 170.323 17.96 170.323 18.7979C170.323 19.625 170.936 20.248 171.752 20.248H174.534V30.2383C174.534 31.3984 175.2 32.1074 176.307 32.1074ZM185.438 32.1074C186.565 32.1074 187.199 31.4199 187.199 30.1953V19.1416C187.199 17.9277 186.555 17.2295 185.416 17.2295C184.277 17.2295 183.644 17.917 183.644 19.1416V30.1953C183.644 31.4092 184.299 32.1074 185.438 32.1074ZM193.344 30.2598V23.2344H193.483L198.468 30.7002C199.198 31.7744 199.682 32.1074 200.477 32.1074C201.562 32.1074 202.142 31.4199 202.142 30.1309V19.0771C202.142 17.917 201.519 17.2295 200.477 17.2295C199.445 17.2295 198.844 17.917 198.844 19.0771V26.0166H198.704L193.763 18.6475C193.054 17.6162 192.603 17.2295 191.818 17.2295C190.647 17.2295 190.057 17.9385 190.057 19.3135V30.2598C190.057 31.4092 190.669 32.1074 191.711 32.1074C192.753 32.1074 193.344 31.4199 193.344 30.2598ZM204.462 25.6299C204.462 29.8086 206.857 32.3223 210.929 32.3223C214.549 32.3223 216.987 30.1309 216.987 26.8975V26.0059C216.987 24.6416 216.364 24.0293 214.946 24.0293H212.314C211.369 24.0293 210.864 24.4697 210.864 25.2754C210.864 26.0918 211.38 26.543 212.314 26.543H213.636V27.166C213.636 28.5088 212.604 29.4111 211.068 29.4111C209.092 29.4111 208.007 28.0684 208.007 25.6191V23.8467C208.007 21.3652 209.07 20.0654 211.101 20.0654C212.486 20.0654 213.292 20.9033 214.162 21.7734C214.474 22.085 214.796 22.2246 215.215 22.2246C216.063 22.2246 216.654 21.6445 216.654 20.7959C216.654 19.9473 216.021 19.0234 215.054 18.3252C213.979 17.5195 212.508 17.0684 210.843 17.0684C206.89 17.0684 204.462 19.6143 204.462 23.6748V25.6299Z" fill="white"/>
  <path fill-rule="evenodd" clip-rule="evenodd" d="M20 0C17.7909 0 16 1.79086 16 4V6C16 7.10457 16.8954 8 18 8H22C23.1046 8 24 7.10457 24 6V4C24 1.79086 22.2091 0 20 0ZM0 24C0 17.3726 5.37259 12 12 12H16C17.4571 12 18.8233 12.3896 20 13.0703C21.1767 12.3896 22.5429 12 24 12H32C33.4571 12 34.8233 12.3896 36 13.0703C37.1767 12.3896 38.5429 12 40 12H48C52.4183 12 56 15.5817 56 20V34C56 35.1046 55.1046 36 54 36H50C48.8954 36 48 35.1046 48 34V22C48 20.8954 47.1046 20 46 20H42C40.8954 20 40 20.8954 40 22V34C40 35.1046 39.1046 36 38 36H34C32.8954 36 32 35.1046 32 34V22C32 20.8954 31.1046 20 30 20H26C24.8954 20 24 20.8954 24 22V34C24 35.1046 23.1046 36 22 36H18H12C5.37259 36 0 30.6274 0 24ZM8 24C8 21.7909 9.79086 20 12 20H14C15.1046 20 16 20.8954 16 22V26C16 27.1046 15.1046 28 14 28H12C9.79086 28 8 26.2091 8 24Z" fill="white"/>
  <path d="M20 28H24C26.2091 28 28 29.7909 28 32C28 34.2091 26.2091 36 24 36H20V28Z" fill="white"/>
</svg>
