<svg width="10" height="16" viewBox="0 0 10 16" fill="none" xmlns="http://www.w3.org/2000/svg">
    <path fill-rule="evenodd" clip-rule="evenodd" d="M0.953682 4.04024C0.940778 6.25655 2.75525 8.09097 4.96805 8.09851C7.2033 8.10622 9.03034 6.31353 9.04174 4.10174C9.05297 1.83766 7.25575 0.00592646 5.01665 -0.000106152C2.78207 -0.00630634 0.966417 1.79946 0.953682 4.04024ZM5.00056 2.06807C6.09883 2.06908 6.97523 2.94515 6.97909 4.0456C6.98277 5.14588 6.10872 6.02765 5.01078 6.0315C3.90949 6.03552 3.02555 5.16565 3.01734 4.06939C3.00879 2.95889 3.89307 2.0669 5.00056 2.06807ZM0.896245 10.0862C1.85376 10.8351 2.97214 11.1406 4.21251 11.27C4.17881 11.306 4.14977 11.3377 4.12337 11.3665C4.08111 11.4126 4.0456 11.4513 4.00857 11.4886C3.8319 11.6658 3.65524 11.8429 3.47857 12.0201C2.74567 12.7551 2.01264 13.4902 1.27798 14.2238C1.08946 14.4119 0.954393 14.6217 0.940987 14.8964C0.921549 15.3024 1.17341 15.7064 1.56922 15.8983C1.94156 16.0791 2.32363 16.0222 2.6447 15.7056C3.35973 15.0006 4.07057 14.2916 4.77002 13.5716C4.94497 13.3916 5.04032 13.3524 5.23856 13.5597C5.69652 14.0389 6.16675 14.5064 6.63703 14.9738C6.86625 15.2017 7.09549 15.4296 7.32333 15.6589C7.50481 15.8417 7.70908 15.972 7.97099 15.9901C8.3844 16.0185 8.80601 15.7539 8.99436 15.3517C9.16663 14.9837 9.10127 14.5914 8.78841 14.275C8.20472 13.6848 7.61817 13.0974 7.03163 12.5099C6.6954 12.1731 6.35917 11.8363 6.02347 11.499C5.97572 11.451 5.93674 11.4084 5.87752 11.3435C5.85735 11.3214 5.83482 11.2968 5.80881 11.2685C6.48731 11.1873 7.17285 11.0652 7.79873 10.8225C8.46064 10.5658 9.05636 10.198 9.55171 9.68958C9.87462 9.35796 9.87797 8.94104 9.61589 8.51389C9.38648 8.13987 8.98783 7.98286 8.56035 8.09262C8.34049 8.14925 8.1508 8.26019 7.97334 8.39626C6.18216 9.6011 3.73074 9.56725 1.94626 8.34113C1.85878 8.28047 1.76746 8.22399 1.6716 8.17875C1.17659 7.94532 0.700353 8.05407 0.416652 8.4606C0.0850262 8.93567 0.127254 9.39667 0.546354 9.79918C0.633042 9.88238 0.728836 9.95648 0.824486 10.0305C0.848463 10.049 0.872432 10.0676 0.896245 10.0862Z" fill="white"/>
</svg>
