<svg width="196" height="240" viewBox="0 0 196 240" fill="none" xmlns="http://www.w3.org/2000/svg">
    <path d="M195.464 37.4976C155.087 37.4976 124.154 25.7973 97.9963 0C71.8418 25.7973 40.9101 37.4976 0.536294 37.4976C0.536294 104.679 -13.1696 200.916 97.9957 240C209.169 200.917 195.464 104.68 195.464 37.4976Z" fill="#EEFAF9"/>
    <mask id="mask0" mask-type="alpha" maskUnits="userSpaceOnUse" x="0" y="0" width="196" height="240">
        <path d="M195.464 37.4976C155.087 37.4976 124.154 25.7973 97.9963 0C71.8418 25.7973 40.9101 37.4976 0.536293 37.4976C0.536293 104.679 -13.1696 200.916 97.9957 240C209.169 200.917 195.464 104.68 195.464 37.4976Z" fill="#EEFAF9"/>
    </mask>
    <g mask="url(#mask0)">
        <path d="M32 168C32 158.611 39.5848 151 48.9412 151H147.059C156.415 151 164 158.611 164 168V240.604C164 275.616 135.715 304 100.824 304H95.1765C60.2851 304 32 275.616 32 240.604V168Z" fill="url(#paint0_linear)"/>
        <path d="M49 168C49 158.611 56.581 151 65.9325 151H147.067C156.419 151 164 158.611 164 168V246.271C164 278.154 138.256 304 106.5 304C74.7436 304 49 278.154 49 246.271V168Z" fill="url(#paint1_linear)"/>
        <path fill-rule="evenodd" clip-rule="evenodd" d="M141 174.545L101.023 215L80 193.725L87.5866 186.18L101.023 199.778L133.413 167L141 174.545Z" fill="#ADD6D4"/>
        <path d="M120.941 56H80.7055C63.942 56 50.3525 69.6024 50.3525 86.3818V115.35C50.3525 132.13 63.942 145.732 80.7055 145.732H120.941C137.704 145.732 151.294 132.13 151.294 115.35V86.3818C151.294 69.6024 137.704 56 120.941 56Z" fill="url(#paint2_linear)"/>
        <path d="M121.647 59.5327H96.9409C82.5165 59.5327 70.8232 71.2371 70.8232 85.6752V116.057C70.8232 130.495 82.5165 142.199 96.9409 142.199H121.647C136.071 142.199 147.764 130.495 147.764 116.057V85.6752C147.764 71.2371 136.071 59.5327 121.647 59.5327Z" fill="#CCFBF6"/>
        <path d="M121.647 67.3047H101.177C89.871 67.3047 80.7061 76.4784 80.7061 87.7947V113.937C80.7061 125.253 89.871 134.427 101.177 134.427H121.647C132.953 134.427 142.118 125.253 142.118 113.937V87.7947C142.118 76.4784 132.953 67.3047 121.647 67.3047Z" fill="black"/>
        <path d="M101.177 94.1539C101.177 91.8126 99.2804 89.9146 96.9413 89.9146C94.6023 89.9146 92.7061 91.8126 92.7061 94.1539V105.459C92.7061 107.8 94.6023 109.698 96.9413 109.698C99.2804 109.698 101.177 107.8 101.177 105.459V94.1539Z" fill="#28BEB2"/>
        <path d="M137.177 94.1539C137.177 91.8126 135.28 89.9146 132.941 89.9146C130.602 89.9146 128.706 91.8126 128.706 94.1539V105.459C128.706 107.8 130.602 109.698 132.941 109.698C135.28 109.698 137.177 107.8 137.177 105.459V94.1539Z" fill="#28BEB2"/>
        <path d="M60.235 115.35C63.3537 115.35 65.882 108.866 65.882 100.866C65.882 92.8667 63.3537 86.3818 60.235 86.3818C57.1162 86.3818 54.5879 92.8667 54.5879 100.866C54.5879 108.866 57.1162 115.35 60.235 115.35Z" fill="#ADD6D4"/>
        <path d="M59.5299 115.35C62.6487 115.35 65.1769 108.866 65.1769 100.866C65.1769 92.8667 62.6487 86.3818 59.5299 86.3818C56.4111 86.3818 53.8828 92.8667 53.8828 100.866C53.8828 108.866 56.4111 115.35 59.5299 115.35Z" fill="#C4C4C4"/>
        <path d="M59.5299 115.35C62.6487 115.35 65.1769 108.866 65.1769 100.866C65.1769 92.8667 62.6487 86.3818 59.5299 86.3818C56.4111 86.3818 53.8828 92.8667 53.8828 100.866C53.8828 108.866 56.4111 115.35 59.5299 115.35Z" fill="url(#paint3_linear)"/>
        <path d="M121.647 68.0112H101.177C90.2611 68.0112 81.4121 76.8686 81.4121 87.7947V113.937C81.4121 124.863 90.2611 133.721 101.177 133.721H121.647C132.563 133.721 141.412 124.863 141.412 113.937V87.7947C141.412 76.8686 132.563 68.0112 121.647 68.0112Z" fill="url(#paint4_linear)" fill-opacity="0.35"/>
    </g>
    <defs>
        <linearGradient id="paint0_linear" x1="177.767" y1="227.5" x2="117.291" y2="309.116" gradientUnits="userSpaceOnUse">
            <stop stop-color="#D1F9F9"/>
            <stop offset="1" stop-color="#ADD6D4"/>
        </linearGradient>
        <linearGradient id="paint1_linear" x1="164" y1="151" x2="175.236" y2="294.087" gradientUnits="userSpaceOnUse">
            <stop stop-color="#DBFFFF"/>
            <stop offset="1" stop-color="#9BDCD9"/>
        </linearGradient>
        <linearGradient id="paint2_linear" x1="151.294" y1="56" x2="62.1796" y2="156.246" gradientUnits="userSpaceOnUse">
            <stop stop-color="#CFFFFA"/>
            <stop offset="1" stop-color="#ADD6D4"/>
        </linearGradient>
        <linearGradient id="paint3_linear" x1="65.1769" y1="93.8006" x2="44.023" y2="97.9992" gradientUnits="userSpaceOnUse">
            <stop stop-color="#CFFFFA"/>
            <stop offset="1" stop-color="#ADD6D4"/>
        </linearGradient>
        <linearGradient id="paint4_linear" x1="141.412" y1="68.0112" x2="75.9733" y2="127.764" gradientUnits="userSpaceOnUse">
            <stop stop-color="white"/>
            <stop offset="1" stop-color="white" stop-opacity="0"/>
        </linearGradient>
    </defs>
</svg>
