<svg width="16" height="14" viewBox="0 0 16 14" fill="none" xmlns="http://www.w3.org/2000/svg">
    <path d="M16.001 2.03944C15.4121 2.30038 14.7802 2.47735 14.1163 2.55636C14.7942 2.15042 15.3131 1.50655 15.559 0.741688C14.9231 1.11761 14.2213 1.39058 13.4734 1.53855C12.8745 0.899675 12.0227 0.50174 11.0778 0.50174C9.26519 0.50174 7.79546 1.97147 7.79546 3.78313C7.79546 4.04007 7.82445 4.29103 7.88045 4.531C5.15298 4.39401 2.73444 3.08726 1.11575 1.10161C0.832794 1.58553 0.671826 2.1494 0.671826 2.75131C0.671826 3.89011 1.25172 4.89492 2.13156 5.48279C1.59366 5.46481 1.08775 5.31683 0.644846 5.07087V5.11186C0.644846 6.70157 1.77664 8.02831 3.27734 8.33027C3.00239 8.40426 2.71245 8.44525 2.41251 8.44525C2.20056 8.44525 1.99559 8.42426 1.79462 8.38426C2.21253 9.68902 3.42432 10.6378 4.86006 10.6638C3.73726 11.5437 2.32153 12.0666 0.783826 12.0666C0.518885 12.0666 0.257918 12.0506 0.000976562 12.0216C1.45371 12.9544 3.17839 13.4983 5.03204 13.4983C11.0699 13.4983 14.3703 8.49725 14.3703 4.16007L14.3593 3.73516C15.0041 3.27521 15.562 2.69732 16.001 2.03944Z" fill="white"/>
</svg>
