<svg width="16" height="10" viewBox="0 0 16 10" fill="none" xmlns="http://www.w3.org/2000/svg">
    <path d="M15.8574 8.57805C15.8144 8.50605 15.5484 7.928 14.2683 6.73992C12.9282 5.49582 13.1082 5.69784 14.7223 3.54668C15.7054 2.23658 16.0984 1.43652 15.9754 1.0945C15.8584 0.768473 15.1353 0.85448 15.1353 0.85448L12.7312 0.868481C12.7312 0.868481 12.5531 0.844479 12.4201 0.923485C12.2911 1.00149 12.2081 1.1815 12.2081 1.1815C12.2081 1.1815 11.8271 2.19558 11.3191 3.05764C10.248 4.87678 9.81894 4.97278 9.64393 4.85978C9.2369 4.59676 9.33891 3.8017 9.33891 3.23766C9.33891 1.47453 9.60593 0.739471 8.81787 0.549457C8.55585 0.486452 8.36384 0.444449 7.69479 0.437449C6.83672 0.428448 6.10967 0.440449 5.69864 0.641464C5.42462 0.775474 5.21361 1.0745 5.34262 1.0915C5.50163 1.1125 5.86165 1.1885 6.05267 1.44852C6.29969 1.78355 6.29069 2.5376 6.29069 2.5376C6.29069 2.5376 6.4327 4.61276 5.95966 4.87078C5.63464 5.04779 5.1896 4.68676 4.23453 3.03564C3.7455 2.19058 3.37547 1.25551 3.37547 1.25551C3.37547 1.25551 3.30447 1.0815 3.17746 0.98849C3.02345 0.875481 2.80743 0.839479 2.80743 0.839479L0.521262 0.85348C0.521262 0.85348 0.178236 0.863481 0.0522271 1.01249C-0.0597811 1.1455 0.0432264 1.41952 0.0432264 1.41952C0.0432264 1.41952 1.83336 5.60683 3.85951 7.71799C5.71864 9.65313 7.8288 9.52612 7.8288 9.52612H8.78487C8.78487 9.52612 9.07389 9.49412 9.2209 9.33511C9.35691 9.1891 9.35191 8.91508 9.35191 8.91508C9.35191 8.91508 9.33291 7.63198 9.92895 7.44297C10.516 7.25695 11.2701 8.68306 12.0691 9.2321C12.6732 9.64713 13.1322 9.55612 13.1322 9.55612L15.2693 9.52612C15.2693 9.52612 16.3874 9.45712 15.8574 8.57805Z" fill="white"/>
</svg>
